<svg width="23" height="20" viewBox="0 0 23 20" fill="none" xmlns="http://www.w3.org/2000/svg">
<path d="M8.62533 12H14.3753M21.0837 17C21.0837 17.5304 20.8817 18.0391 20.5223 18.4142C20.1628 18.7893 19.6753 19 19.167 19H3.83366C3.32533 19 2.83782 18.7893 2.47837 18.4142C2.11893 18.0391 1.91699 17.5304 1.91699 17V3C1.91699 2.46957 2.11893 1.96086 2.47837 1.58579C2.83782 1.21071 3.32533 1 3.83366 1H8.62533L10.542 4H19.167C19.6753 4 20.1628 4.21071 20.5223 4.58579C20.8817 4.96086 21.0837 5.46957 21.0837 6V17Z" stroke="#253C4F" stroke-width="2" stroke-linecap="round" stroke-linejoin="round"/>
</svg>
