<svg width="23" height="24" viewBox="0 0 23 24" fill="none" xmlns="http://www.w3.org/2000/svg">
<g clip-path="url(#clip0_1416_1935)">
<path d="M8.62484 14H14.3748M21.0832 19C21.0832 19.5304 20.8812 20.0391 20.5218 20.4142C20.1623 20.7893 19.6748 21 19.1665 21H3.83317C3.32484 21 2.83733 20.7893 2.47788 20.4142C2.11844 20.0391 1.9165 19.5304 1.9165 19V5C1.9165 4.46957 2.11844 3.96086 2.47788 3.58579C2.83733 3.21071 3.32484 3 3.83317 3H8.62484L10.5415 6H19.1665C19.6748 6 20.1623 6.21071 20.5218 6.58579C20.8812 6.96086 21.0832 7.46957 21.0832 8V19Z" stroke="#253C4F" stroke-width="4" stroke-linecap="round" stroke-linejoin="round"/>
</g>
<defs>
<clipPath id="clip0_1416_1935">
<rect width="23" height="24" fill="white"/>
</clipPath>
</defs>
</svg>
