<svg width="24" height="24" viewBox="0 0 24 24" fill="none" xmlns="http://www.w3.org/2000/svg">
<path fill-rule="evenodd" clip-rule="evenodd" d="M5.80664 6.6731V13.8213C5.80664 17.7524 8.57959 20.9393 12.0002 20.9393C15.4207 20.9393 18.1937 17.7524 18.1937 13.8213V6.6731H5.80664Z" fill="#253C4F"/>
<path d="M7.74194 6.6731C7.74194 7.41018 8.26187 8.00772 8.90323 8.00772C9.54457 8.00772 10.0645 7.41018 10.0645 6.6731H7.74194ZM13.9355 6.6731C13.9355 7.41018 14.4554 8.00772 15.0968 8.00772C15.7381 8.00772 16.2581 7.41018 16.2581 6.6731H13.9355ZM13.1613 13.8213C13.1613 13.0843 12.6413 12.4867 12 12.4867C11.3587 12.4867 10.8387 13.0843 10.8387 13.8213H13.1613ZM10.8387 20.9695C10.8387 21.7066 11.3587 22.3042 12 22.3042C12.6413 22.3042 13.1613 21.7066 13.1613 20.9695H10.8387ZM1.16129 12.4867C0.519933 12.4867 0 13.0843 0 13.8213C0 14.5584 0.519933 15.1559 1.16129 15.1559V12.4867ZM5.80645 15.1559C6.44781 15.1559 6.96774 14.5584 6.96774 13.8213C6.96774 13.0843 6.44781 12.4867 5.80645 12.4867V15.1559ZM3.5335 2.15032C3.08145 1.62744 2.34616 1.62469 1.89118 2.1442C1.43621 2.66372 1.43382 3.50875 1.88586 4.03164L3.5335 2.15032ZM4.98263 7.61376C5.43468 8.13664 6.16997 8.13938 6.62495 7.61988C7.07992 7.10036 7.08231 6.25533 6.63027 5.73244L4.98263 7.61376ZM8.44405 19.8168C8.8966 19.2945 8.89505 18.4494 8.44058 17.9293C7.9861 17.4093 7.25082 17.4111 6.79827 17.9334L8.44405 19.8168ZM3.51414 21.7237C3.06159 22.246 3.06314 23.0911 3.51761 23.6112C3.97209 24.1312 4.70738 24.1294 5.15992 23.6071L3.51414 21.7237ZM22.8387 15.1559C23.4801 15.1559 24 14.5584 24 13.8213C24 13.0843 23.4801 12.4867 22.8387 12.4867V15.1559ZM18.1936 12.4867C17.5522 12.4867 17.0323 13.0843 17.0323 13.8213C17.0323 14.5584 17.5522 15.1559 18.1936 15.1559V12.4867ZM22.1141 4.03164C22.5662 3.50875 22.5637 2.66372 22.1088 2.1442C21.6539 1.62469 20.9186 1.62744 20.4666 2.15032L22.1141 4.03164ZM17.3698 5.73244C16.9177 6.25533 16.9202 7.10036 17.3751 7.61988C17.83 8.13938 18.5653 8.13664 19.0173 7.61376L17.3698 5.73244ZM17.2018 17.9334C16.7492 17.4111 16.0139 17.4093 15.5594 17.9293C15.105 18.4494 15.1034 19.2945 15.5559 19.8168L17.2018 17.9334ZM18.84 23.6071C19.2926 24.1294 20.0279 24.1312 20.4824 23.6112C20.9368 23.0911 20.9384 22.246 20.4859 21.7237L18.84 23.6071ZM10.0645 6.6731V4.89361H7.74194V6.6731H10.0645ZM10.0645 4.89361C10.0645 3.66511 10.931 2.66924 12 2.66924V0C9.64831 0 7.74194 2.19095 7.74194 4.89361H10.0645ZM12 2.66924C13.069 2.66924 13.9355 3.66511 13.9355 4.89361H16.2581C16.2581 2.19095 14.3517 0 12 0V2.66924ZM13.9355 4.89361V6.6731H16.2581V4.89361H13.9355ZM10.8387 13.8213V20.9695H13.1613V13.8213H10.8387ZM1.16129 15.1559H5.80645V12.4867H1.16129V15.1559ZM1.88586 4.03164L4.98263 7.61376L6.63027 5.73244L3.5335 2.15032L1.88586 4.03164ZM6.79827 17.9334L3.51414 21.7237L5.15992 23.6071L8.44405 19.8168L6.79827 17.9334ZM22.8387 12.4867H18.1936V15.1559H22.8387V12.4867ZM20.4666 2.15032L17.3698 5.73244L19.0173 7.61376L22.1141 4.03164L20.4666 2.15032ZM15.5559 19.8168L18.84 23.6071L20.4859 21.7237L17.2018 17.9334L15.5559 19.8168Z" fill="#253C4F"/>
</svg>
