<svg width="24" height="24" viewBox="0 0 24 24" fill="none" xmlns="http://www.w3.org/2000/svg">
<path d="M22.9091 5.33333H16.7269V1.33333C16.7269 0.979711 16.612 0.640573 16.4074 0.390524C16.2028 0.140476 15.9253 0 15.636 0H8.364C8.07467 0 7.7972 0.140476 7.59261 0.390524C7.38803 0.640573 7.27309 0.979711 7.27309 1.33333V10.6667H1.09091C0.801582 10.6667 0.524105 10.8071 0.31952 11.0572C0.114935 11.3072 0 11.6464 0 12V22.6667C0 23.0203 0.114935 23.3594 0.31952 23.6095C0.524105 23.8595 0.801582 24 1.09091 24H22.9091C23.1984 24 23.4759 23.8595 23.6805 23.6095C23.8851 23.3594 24 23.0203 24 22.6667V6.66667C24 6.31305 23.8851 5.97391 23.6805 5.72386C23.4759 5.47381 23.1984 5.33333 22.9091 5.33333ZM7.27309 21.3333H2.18182V13.3333H7.27309V21.3333ZM14.5451 21.3333H9.45491V2.66667H14.5451V21.3333ZM21.8182 21.3333H16.7269V8H21.8182V21.3333Z" fill="#253C4F"/>
</svg>
