<svg width="51" height="56" viewBox="0 0 51 56" fill="none" xmlns="http://www.w3.org/2000/svg">
<path d="M40.3169 1.16132H11.1176C5.86715 1.16132 1.61084 5.89107 1.61084 11.7255V44.1727C1.61084 50.0071 5.86715 54.7369 11.1176 54.7369H40.3169C45.5673 54.7369 49.8236 50.0071 49.8236 44.1727V11.7255C49.8236 5.89107 45.5673 1.16132 40.3169 1.16132Z" fill="white" stroke="#463F53" stroke-width="1.75342"/>
<path d="M37.9072 28.0302C37.9072 28.0573 37.9072 28.0573 37.9072 28.0573" stroke="#5C546A" stroke-width="0.876712" stroke-linecap="round" stroke-linejoin="round"/>
<path d="M16.0825 16.814C16.1069 16.8315 16.1309 16.8497 16.1545 16.8684C16.1562 16.8697 16.1579 16.871 16.1596 16.8725C16.1839 16.8918 16.2078 16.9117 16.2313 16.9322L16.234 16.9346C16.2581 16.9556 16.2816 16.9772 16.3048 16.9994L16.3059 17.0004C16.3294 17.0231 16.3525 17.0462 16.375 17.07C16.4349 17.133 16.4917 17.1996 16.5443 17.2702C16.5697 17.2739 16.5953 17.2764 16.6211 17.2764C16.7543 17.2764 16.8824 17.2313 16.9924 17.1281C17.2418 16.9024 17.2713 16.4963 17.0678 16.219C16.8648 15.9483 16.4992 15.9096 16.2492 16.1353C16.0719 16.3039 16.0059 16.5647 16.0608 16.7987C16.0654 16.8019 16.07 16.8052 16.0746 16.8085C16.0773 16.8103 16.0799 16.812 16.0825 16.814Z" fill="#5C546A"/>
<path d="M12.7084 22.5989C12.4006 22.4761 12.07 22.6568 11.9652 22.9917C11.8609 23.3336 12.0236 23.6944 12.3252 23.8171C12.3892 23.8366 12.4527 23.8492 12.5168 23.8492C12.7549 23.8492 12.981 23.6817 13.0627 23.4173C13.1669 23.0824 13.0099 22.7148 12.7084 22.5989Z" fill="#5C546A"/>
<path d="M18.0259 15.4833C18.1302 15.6958 18.3274 15.8119 18.531 15.8119C18.6239 15.8119 18.7283 15.7861 18.815 15.7282C19.0939 15.5475 19.1925 15.1543 19.0298 14.8449C18.8734 14.5354 18.5191 14.4322 18.2407 14.6063C17.9618 14.7804 17.8632 15.1738 18.0259 15.4833Z" fill="#5C546A"/>
<path d="M13.9494 20.6555C13.925 20.6395 13.901 20.623 13.8774 20.606C13.8748 20.6042 13.8723 20.6025 13.8698 20.6006C13.8476 20.5846 13.8258 20.5679 13.8042 20.551C13.8004 20.5479 13.7965 20.5449 13.7927 20.5419C13.7721 20.5254 13.7518 20.5086 13.7319 20.4913C13.7274 20.4874 13.7229 20.4834 13.7184 20.4795C13.6991 20.4625 13.68 20.4452 13.6613 20.4274C13.6565 20.4229 13.6517 20.4182 13.6469 20.4137C13.6287 20.3961 13.6106 20.3782 13.593 20.3599C13.5881 20.3548 13.5834 20.3497 13.5785 20.3445C13.5611 20.3261 13.5439 20.3076 13.5271 20.2886C13.5226 20.2835 13.5183 20.2782 13.5138 20.273C13.4969 20.2535 13.4802 20.234 13.4639 20.2138L13.462 20.2115C13.26 20.2142 13.064 20.3316 12.9579 20.5407C12.8014 20.8502 12.9001 21.2434 13.1846 21.4178C13.2713 21.4757 13.37 21.5015 13.463 21.5015C13.6665 21.5015 13.8637 21.3787 13.9737 21.1659C14.0451 21.02 14.0601 20.8555 14.0275 20.7041C14.0014 20.6887 13.9757 20.6726 13.9503 20.6561L13.9494 20.6555Z" fill="#5C546A"/>
<path d="M11.8607 26.3394C11.8896 26.3456 11.9186 26.3519 11.948 26.3519C12.232 26.3519 12.4758 26.1265 12.5223 25.8042C12.5745 25.4561 12.3602 25.1205 12.0404 25.0688C11.7269 25.0109 11.4253 25.2495 11.3789 25.604C11.3268 25.9521 11.5416 26.2877 11.8607 26.3394Z" fill="#5C546A"/>
<path d="M15.3905 38.2211C15.6343 37.9888 15.6575 37.5827 15.4484 37.312C15.2397 37.0413 14.8735 37.0092 14.6298 37.2409C14.3861 37.4732 14.3628 37.8793 14.572 38.1499C14.6825 38.2985 14.8447 38.376 15.0073 38.376C15.1411 38.376 15.2799 38.3243 15.3905 38.2211Z" fill="#5C546A"/>
<path d="M13.6544 36.2859C13.7588 36.2859 13.8574 36.2538 13.9503 36.1952C14.2293 36.0083 14.316 35.6154 14.1539 35.3126C13.9912 35.0028 13.6312 34.8996 13.3585 35.0865C13.0796 35.2672 12.9929 35.6607 13.155 35.9698C13.2655 36.1694 13.4572 36.2859 13.6544 36.2859Z" fill="#5C546A"/>
<path d="M11.7913 28.9195C12.1162 28.9126 12.3718 28.6229 12.3661 28.2679C12.3605 27.9071 12.0991 27.6232 11.78 27.6301C11.4546 27.6364 11.1995 27.9267 11.2052 28.2811C11.2108 28.6355 11.4722 28.9195 11.7857 28.9195C11.7913 28.9195 11.7913 28.9195 11.7913 28.9195Z" fill="#5C546A"/>
<path d="M13.1902 33.087C13.074 32.7584 12.7429 32.5903 12.4414 32.713C12.1392 32.8421 11.9885 33.216 12.1046 33.5447C12.1919 33.8021 12.4124 33.9633 12.6443 33.9633C12.7141 33.9633 12.7838 33.9507 12.8535 33.9186C13.1494 33.7959 13.3002 33.422 13.1902 33.087Z" fill="#5C546A"/>
<path d="M12.0175 31.4801C12.0526 31.4801 12.0873 31.4801 12.128 31.4739C12.4415 31.4027 12.6507 31.0678 12.5923 30.7197C12.5288 30.3715 12.2266 30.1392 11.9132 30.2034C11.5941 30.2683 11.3905 30.6101 11.4489 30.9583C11.5011 31.2674 11.7449 31.4801 12.0175 31.4801Z" fill="#5C546A"/>
<path d="M20.0865 14.3092C20.1738 14.5736 20.3943 14.7347 20.6381 14.7347C20.7016 14.7347 20.7656 14.7218 20.8297 14.6961C21.1313 14.5799 21.2883 14.2063 21.1834 13.871C21.0734 13.5358 20.7424 13.3617 20.4408 13.4841C20.1386 13.5999 19.9822 13.9739 20.0865 14.3092Z" fill="#5C546A"/>
<path d="M37.135 23.1981C37.2217 23.4556 37.4428 23.6237 37.6804 23.6237C37.7501 23.6237 37.8142 23.6104 37.8782 23.5846C38.1798 23.4625 38.3368 23.0886 38.2263 22.753C38.1158 22.4181 37.7853 22.2506 37.4832 22.3727C37.1815 22.4955 37.0245 22.8625 37.135 23.1981Z" fill="#5C546A"/>
<path d="M34.993 18.0381C34.7493 18.2638 34.7203 18.6761 34.9233 18.9468C35.0395 19.0951 35.2022 19.1792 35.3705 19.1792C35.4981 19.1792 35.6319 19.1275 35.7418 19.0243C35.9855 18.7985 36.0207 18.3925 35.8115 18.1152H35.8172C35.6086 17.8445 35.243 17.8057 34.993 18.0381Z" fill="#5C546A"/>
<path d="M33.2867 16.2963C33.0775 16.567 33.1127 16.9734 33.3564 17.2054C33.4664 17.302 33.6001 17.3537 33.7333 17.3537C33.896 17.3537 34.0587 17.2762 34.1744 17.1217C34.3836 16.8507 34.3489 16.4446 34.1052 16.2126C33.8615 15.9869 33.4953 16.019 33.2867 16.2963Z" fill="#5C546A"/>
<path d="M38.1975 31.2351C38.2264 31.2414 38.261 31.2414 38.2961 31.2414C38.5688 31.2414 38.8126 31.0223 38.8647 30.7062C38.9175 30.3581 38.7083 30.0231 38.3948 29.9652C38.0756 29.9004 37.7734 30.139 37.7213 30.4872C37.6692 30.8417 37.8783 31.1703 38.1975 31.2351Z" fill="#5C546A"/>
<path d="M38.3827 26.1006C38.6962 26.0357 38.911 25.7008 38.8532 25.3526C38.801 25.0045 38.4989 24.7659 38.1797 24.8307C37.8663 24.8949 37.6571 25.2235 37.7098 25.578C37.7619 25.8877 38.0057 26.1068 38.284 26.1068C38.3135 26.1068 38.3481 26.1068 38.3827 26.1006Z" fill="#5C546A"/>
<path d="M22.3037 13.5482C22.3559 13.8576 22.5996 14.083 22.878 14.083C22.9131 14.083 22.942 14.0768 22.9772 14.0768C23.2901 14.0122 23.5049 13.677 23.4528 13.3288C23.395 12.9807 23.0991 12.7424 22.7794 12.8003C22.4658 12.8648 22.2516 13.1935 22.3037 13.5482Z" fill="#5C546A"/>
<path d="M31.3359 14.9028C31.1732 15.2123 31.2662 15.6058 31.5451 15.7861C31.5451 15.7798 31.5451 15.7798 31.5451 15.7798C31.6318 15.8444 31.7367 15.8698 31.8353 15.8698C32.0326 15.8698 32.2299 15.754 32.3342 15.5475C32.4969 15.2447 32.4039 14.8515 32.1256 14.6708C31.8467 14.4905 31.4929 14.5934 31.3359 14.9028Z" fill="#5C546A"/>
<path d="M24.6084 13.2257C24.6084 13.5802 24.8698 13.8704 25.1889 13.8704C25.508 13.8704 25.7694 13.5802 25.7694 13.2257C25.7694 12.871 25.5137 12.5811 25.1945 12.5811C24.8697 12.5811 24.6141 12.8647 24.6084 13.2257Z" fill="#5C546A"/>
<path d="M26.93 13.3418C26.8722 13.6965 27.0808 14.0252 27.4 14.0897C27.4295 14.096 27.4641 14.1026 27.4986 14.1026C27.7775 14.1026 28.0213 13.8835 28.0734 13.5674C28.1256 13.2193 27.917 12.8841 27.6035 12.8195C27.2843 12.7617 26.9821 12.9936 26.93 13.3418Z" fill="#5C546A"/>
<path d="M29.1944 13.9098C29.0839 14.2447 29.2346 14.6124 29.5368 14.7348C29.6065 14.7606 29.67 14.7735 29.7397 14.7735C29.9721 14.7735 30.1983 14.6123 30.2794 14.3545C30.3899 14.0193 30.2392 13.6453 29.937 13.5229C29.6354 13.4004 29.3043 13.5745 29.1944 13.9098Z" fill="#5C546A"/>
<path d="M38.4877 27.3851C38.1623 27.3851 37.9072 27.6748 37.9072 28.0298C37.9072 28.3906 38.1686 28.6745 38.4877 28.6745C38.8068 28.6745 39.0682 28.3842 39.0682 28.0298C39.0682 27.6747 38.8068 27.3851 38.4877 27.3851Z" fill="#5C546A"/>
<path d="M36.6998 21.2885C36.7984 21.2885 36.9028 21.2564 36.9901 21.1978C37.2684 21.0241 37.3614 20.6243 37.2049 20.3214C37.0422 20.012 36.6879 19.9022 36.4096 20.0828C36.1307 20.2632 36.0383 20.6567 36.2004 20.9661C36.3053 21.172 36.5025 21.2885 36.6998 21.2885Z" fill="#5C546A"/>
<path d="M35.7768 37.0474C35.5268 36.8151 35.1612 36.8542 34.9583 37.1311C34.7547 37.4018 34.7899 37.8079 35.0337 38.0402C35.1442 38.1372 35.2717 38.1888 35.4049 38.1888C35.5733 38.1888 35.736 38.1044 35.8522 37.9565C36.0552 37.6795 36.0206 37.2734 35.7768 37.0474Z" fill="#5C546A"/>
<path d="M29.5889 41.3695C29.2867 41.4916 29.1303 41.8592 29.2465 42.1948C29.3332 42.4523 29.5537 42.6134 29.7918 42.6134C29.8559 42.6134 29.9256 42.6009 29.9891 42.575C30.2913 42.4523 30.442 42.0783 30.3321 41.7497C30.2215 41.4148 29.8905 41.2404 29.5889 41.3695Z" fill="#5C546A"/>
<path d="M38.244 33.3059C38.354 32.9704 38.1975 32.6033 37.8954 32.4806C37.5938 32.3647 37.2627 32.5322 37.1528 32.8678C37.0479 33.2027 37.1993 33.5767 37.5009 33.6925C37.5706 33.7183 37.6347 33.7315 37.6981 33.7315C37.9362 33.7315 38.1624 33.5703 38.244 33.3059Z" fill="#5C546A"/>
<path d="M25.2409 42.2533C24.9218 42.2533 24.6604 42.5498 24.6661 42.9042C24.6661 43.2587 24.9275 43.5426 25.2466 43.5426C25.2466 43.5426 25.2466 43.5426 25.2528 43.5426C25.5719 43.5364 25.8271 43.2461 25.8271 42.8917C25.8214 42.5366 25.5601 42.247 25.2409 42.2533Z" fill="#5C546A"/>
<path d="M36.4383 35.983C36.5313 36.0409 36.63 36.073 36.7286 36.073C36.9259 36.073 37.1232 35.9571 37.228 35.7443H37.2337C37.3901 35.4409 37.2915 35.0411 37.0132 34.8673C36.7342 34.6867 36.3805 34.7962 36.2235 35.1059C36.0608 35.4151 36.16 35.8086 36.4383 35.983Z" fill="#5C546A"/>
<path d="M20.8818 41.447C20.5797 41.3243 20.2492 41.505 20.1443 41.8399C20.0343 42.1754 20.1971 42.5431 20.4986 42.6652C20.5627 42.6847 20.6262 42.6973 20.6903 42.6973C20.9283 42.6973 21.1545 42.5361 21.2361 42.2654C21.3461 41.9368 21.1835 41.5628 20.8818 41.447Z" fill="#5C546A"/>
<path d="M17.1142 39.9371C17.3177 39.6664 17.2825 39.2597 17.0331 39.0343C16.7894 38.8089 16.4238 38.8473 16.2202 39.1243C16.0173 39.395 16.0519 39.8017 16.2956 40.0271V40.0334C16.4061 40.1303 16.5394 40.1757 16.6675 40.1757C16.8358 40.1757 16.9979 40.0982 17.1142 39.9371Z" fill="#5C546A"/>
<path d="M27.4465 42.0208C27.1331 42.0857 26.9245 42.4206 26.9823 42.7687C27.0345 43.0785 27.2782 43.2976 27.5571 43.2976C27.586 43.2976 27.6212 43.2976 27.6557 43.2907C27.9748 43.2202 28.184 42.8846 28.1257 42.5365C28.0678 42.1883 27.7662 41.9566 27.4465 42.0208Z" fill="#5C546A"/>
<path d="M31.5915 40.3118C31.3126 40.4919 31.2196 40.8854 31.3823 41.1945C31.4928 41.3947 31.6844 41.5105 31.8817 41.5105C31.9861 41.5105 32.0847 41.4848 32.1776 41.4205C32.4503 41.2399 32.5489 40.8464 32.3868 40.5435C32.2241 40.2344 31.8642 40.1312 31.5915 40.3118Z" fill="#5C546A"/>
<path d="M18.8676 40.4277C18.5887 40.2533 18.2287 40.3628 18.0722 40.6726C17.9152 40.9823 18.0138 41.3752 18.2928 41.5496C18.3857 41.6075 18.4844 41.6333 18.5773 41.6333C18.7803 41.6333 18.9776 41.5169 19.0881 41.3047C19.2445 40.9949 19.1458 40.6015 18.8676 40.4277Z" fill="#5C546A"/>
<path d="M23.0296 42.06C22.7099 42.0014 22.414 42.24 22.3618 42.5882C22.3096 42.9427 22.5245 43.2783 22.838 43.3362C22.8726 43.3424 22.9015 43.3424 22.9366 43.3424C23.215 43.3424 23.4587 43.117 23.5052 42.801C23.5579 42.4529 23.343 42.1179 23.0296 42.06Z" fill="#5C546A"/>
<path d="M33.3967 38.8863C33.3967 38.8794 33.3967 38.8794 33.3967 38.8794C33.153 39.1117 33.124 39.5178 33.3332 39.7884C33.4432 39.9433 33.6116 40.0208 33.7742 40.0208C33.9075 40.0208 34.0413 39.9691 34.1518 39.8659C34.3955 39.6336 34.4245 39.2275 34.2153 38.9568C34.0067 38.6861 33.6404 38.654 33.3967 38.8863Z" fill="#5C546A"/>
<path d="M27.6441 16.7868C27.3311 16.7027 27.0177 16.9156 26.9417 17.2574C26.8663 17.6055 27.058 17.9534 27.3658 18.0375C27.4123 18.0504 27.4587 18.0567 27.5052 18.0567C27.7666 18.0567 28.0041 17.8634 28.0681 17.5669C28.1434 17.225 27.9519 16.8705 27.6441 16.7868Z" fill="#5C546A"/>
<path d="M18.6758 20.6436C18.9077 20.3984 18.9139 19.986 18.6928 19.7345C18.4666 19.4767 18.101 19.4701 17.8686 19.7216V19.7153C17.6368 19.9665 17.6305 20.3726 17.8573 20.6307C17.9673 20.7595 18.1243 20.8305 18.2751 20.8305C18.4201 20.8306 18.5653 20.7661 18.6758 20.6436Z" fill="#5C546A"/>
<path d="M28.7122 38.9303C28.7819 38.9303 28.8511 38.9177 28.9208 38.8856C29.2229 38.7565 29.3681 38.3826 29.2519 38.0539C29.1356 37.7184 28.799 37.5572 28.5031 37.6862C28.2015 37.8153 28.0564 38.1892 28.172 38.5179C28.2593 38.7754 28.4798 38.9303 28.7122 38.9303Z" fill="#5C546A"/>
<path d="M17.6888 35.8984C17.822 35.8984 17.9558 35.8468 18.0657 35.7442C18.31 35.5056 18.3333 35.0995 18.1241 34.8288C17.9149 34.5644 17.5493 34.5323 17.3056 34.7702C17.0619 35.0026 17.0386 35.4086 17.2478 35.6793C17.3634 35.8216 17.5261 35.8984 17.6888 35.8984Z" fill="#5C546A"/>
<path d="M22.5649 18.1147C22.6177 18.1147 22.6698 18.1084 22.7163 18.0955C23.0297 17.9989 23.2095 17.6441 23.1284 17.3025C23.0468 16.961 22.7277 16.7545 22.4141 16.8511C22.1069 16.9414 21.921 17.2962 22.0077 17.6378C22.0774 17.928 22.3098 18.1147 22.5649 18.1147Z" fill="#5C546A"/>
<path d="M20.2658 19.1663C20.3649 19.1663 20.4574 19.1405 20.5503 19.0823C20.8293 18.9085 20.9279 18.515 20.7708 18.2056C20.6087 17.8961 20.2544 17.7866 19.9755 17.9607C19.6972 18.141 19.5986 18.5345 19.7612 18.844C19.8655 19.0501 20.0628 19.1663 20.2658 19.1663Z" fill="#5C546A"/>
<path d="M17.2127 22.6752C17.3811 22.3724 17.2944 21.9726 17.0211 21.7926C16.7428 21.6056 16.3885 21.6956 16.2201 22.0047C16.0518 22.3082 16.1391 22.7011 16.4117 22.888C16.5047 22.9529 16.609 22.985 16.7139 22.985C16.9112 22.9849 17.1027 22.8754 17.2127 22.6752Z" fill="#5C546A"/>
<path d="M25.0379 17.7408C25.357 17.7408 25.6184 17.4442 25.6121 17.0895C25.6121 16.7351 25.3451 16.4514 25.026 16.4514C24.7069 16.4577 24.4512 16.748 24.4512 17.1024C24.4574 17.4571 24.7125 17.7408 25.0317 17.7408H25.0379Z" fill="#5C546A"/>
<path d="M30.105 17.8444H30.0994C29.8205 17.677 29.4667 17.7928 29.3159 18.1025C29.1646 18.4183 29.2694 18.8115 29.5478 18.9792C29.6351 19.0309 29.7337 19.0567 29.8267 19.0567C30.0296 19.0567 30.2332 18.9339 30.3374 18.7214C30.4883 18.4053 30.384 18.0122 30.105 17.8444Z" fill="#5C546A"/>
<path d="M15.2506 28.2291C15.2625 28.2354 15.2682 28.2354 15.2738 28.2354C15.5873 28.2354 15.843 27.9583 15.8543 27.6165C15.8719 27.2621 15.6219 26.9592 15.3027 26.9397C14.9836 26.9272 14.7109 27.2041 14.6934 27.5586H14.699C14.682 27.9131 14.9314 28.2165 15.2506 28.2291Z" fill="#5C546A"/>
<path d="M33.8149 33.3315C33.8903 33.3699 33.977 33.3894 34.0587 33.3894C34.2792 33.3894 34.4878 33.254 34.587 33.0217C34.7202 32.6994 34.5983 32.3191 34.3081 32.1642C34.0178 32.01 33.6754 32.1516 33.536 32.474C33.3966 32.7901 33.5247 33.1766 33.8149 33.3315Z" fill="#5C546A"/>
<path d="M33.9656 24.8428C34.041 25.1135 34.2672 25.2879 34.511 25.2879C34.5751 25.2879 34.6329 25.2747 34.697 25.2552C34.9991 25.1457 35.1674 24.7786 35.0682 24.443C34.9639 24.1012 34.6391 23.9211 34.3313 24.0307C34.0291 24.1402 33.8613 24.501 33.9656 24.8428Z" fill="#5C546A"/>
<path d="M35.5621 27.3199V27.3136C35.5445 26.9592 35.2662 26.6884 34.9465 26.7142C34.6274 26.7331 34.3836 27.0429 34.4068 27.3973C34.4244 27.7392 34.6795 28.0036 34.9816 28.0036C34.9992 28.0036 35.0105 28.0036 35.0225 27.9967C35.3415 27.9778 35.5853 27.6743 35.5621 27.3199Z" fill="#5C546A"/>
<path d="M34.8308 30.764C35.1035 30.764 35.3473 30.5449 35.3994 30.2358C35.4635 29.8876 35.2543 29.5521 34.9408 29.4816C34.6217 29.4167 34.3195 29.649 34.2618 29.9972C34.204 30.3453 34.4069 30.6866 34.726 30.7514C34.7611 30.7577 34.7957 30.764 34.8308 30.764Z" fill="#5C546A"/>
<path d="M33.7567 22.6884C34.0294 22.4951 34.1054 22.0954 33.937 21.7925V21.7988C33.7624 21.4953 33.403 21.4116 33.1297 21.5986C32.8627 21.7925 32.7873 22.1917 32.9557 22.4951C33.0662 22.6821 33.2516 22.7917 33.4433 22.7917C33.5538 22.7916 33.6637 22.7525 33.7567 22.6884Z" fill="#5C546A"/>
<path d="M32.2764 34.6606C32.2764 34.6676 32.2764 34.6676 32.2764 34.6676C32.0672 34.9383 32.1024 35.3443 32.3518 35.5697C32.4561 35.673 32.5899 35.7246 32.7231 35.7246C32.8858 35.7246 33.0542 35.6409 33.1647 35.4923C33.3733 35.2152 33.3387 34.8092 33.095 34.5832C32.8456 34.3515 32.4794 34.39 32.2764 34.6606Z" fill="#5C546A"/>
<path d="M15.4833 30.99C15.5235 30.99 15.5586 30.9837 15.5989 30.9768C15.9186 30.8994 16.1159 30.5582 16.0518 30.2099C15.9821 29.8618 15.6749 29.6358 15.3614 29.7132C15.0479 29.7844 14.8444 30.1262 14.9141 30.4806C14.9725 30.7773 15.21 30.99 15.4833 30.99Z" fill="#5C546A"/>
<path d="M21.2066 38.144C21.0966 38.479 21.2531 38.8467 21.5552 38.9694C21.6187 39.0015 21.6885 39.0141 21.7525 39.0141C21.9906 39.0141 22.2111 38.8467 22.2979 38.5886C22.4084 38.2536 22.252 37.8796 21.9555 37.7638C21.6538 37.641 21.3171 37.8085 21.2066 38.144Z" fill="#5C546A"/>
<path d="M15.6917 25.5071C15.9417 25.5071 16.1736 25.3264 16.249 25.0493C16.3419 24.7075 16.1679 24.3467 15.8601 24.2435C15.5586 24.1403 15.2331 24.3335 15.1408 24.6754C15.0478 25.0103 15.2162 25.3717 15.5234 25.4812C15.5817 25.4939 15.6395 25.5071 15.6917 25.5071Z" fill="#5C546A"/>
<path d="M31.4234 19.5861C31.2029 19.8439 31.2199 20.2565 31.4523 20.4952C31.5623 20.611 31.7074 20.6692 31.8469 20.6692C32.0039 20.6692 32.1603 20.5981 32.2709 20.4627C32.4914 20.1986 32.4795 19.7922 32.242 19.5539C32.0096 19.3088 31.6382 19.3217 31.4234 19.5861Z" fill="#5C546A"/>
<path d="M16.3016 33.6024C16.3883 33.6024 16.4813 33.5766 16.5624 33.5313C16.847 33.3701 16.9631 32.9835 16.8237 32.6675C16.6786 32.3514 16.3306 32.216 16.046 32.3772C15.7557 32.5384 15.6395 32.9256 15.7846 33.2416C15.8833 33.467 16.0924 33.6024 16.3016 33.6024Z" fill="#5C546A"/>
<path d="M26.876 38.9302C26.878 38.9724 26.8777 39.0158 26.8791 39.058C26.8791 39.0154 26.8777 38.9728 26.876 38.9302Z" fill="#5C546A"/>
<path d="M30.5584 36.4416C30.3028 36.6475 30.2393 37.0535 30.4308 37.3374C30.5408 37.5181 30.7211 37.6081 30.9008 37.6081C31.017 37.6081 31.1389 37.5697 31.2376 37.4854C31.4989 37.2795 31.5567 36.8734 31.3714 36.5895C31.1853 36.2993 30.8197 36.235 30.5584 36.4416Z" fill="#5C546A"/>
<path d="M19.0648 36.7312C18.8846 37.0215 18.9486 37.4275 19.2156 37.6277C19.3142 37.7052 19.4305 37.7436 19.5405 37.7436C19.7264 37.7436 19.9067 37.6467 20.0223 37.4597C20.2026 37.1701 20.1386 36.7703 19.8715 36.5638C19.6102 36.3641 19.2446 36.4346 19.0648 36.7312Z" fill="#5C546A"/>
<path d="M9.46949 32.8998C9.38845 32.558 9.06875 32.3515 8.75579 32.4484C8.44799 32.5453 8.26768 32.8998 8.35504 33.2417C8.42477 33.525 8.6566 33.7183 8.91231 33.7183C8.96448 33.7183 9.01665 33.7057 9.06875 33.6925C9.37655 33.5962 9.55678 33.2417 9.46949 32.8998Z" fill="#5C546A"/>
<path d="M24.3006 10.0193C24.3125 10.0193 24.3238 10.0193 24.3295 10.0193C24.6492 10.0065 24.8986 9.70361 24.8811 9.34888C24.8697 8.98785 24.5965 8.71708 24.2774 8.73659C23.9525 8.74948 23.7088 9.05232 23.7201 9.40674C23.7377 9.75495 23.9933 10.0193 24.3006 10.0193Z" fill="#5C546A"/>
<path d="M34.842 13.5673C34.9407 13.6576 35.0626 13.6964 35.1845 13.6964C35.3647 13.6964 35.5388 13.6061 35.6549 13.4383C35.8403 13.1546 35.7882 12.7486 35.533 12.5358C35.2774 12.323 34.9117 12.3813 34.7201 12.6649C34.5285 12.9547 34.5807 13.3611 34.842 13.5673Z" fill="#5C546A"/>
<path d="M22.0019 10.3225C22.037 10.3225 22.0716 10.3225 22.1068 10.3097C22.4197 10.2451 22.6288 9.90987 22.571 9.56174C22.5126 9.20733 22.2054 8.98161 21.8919 9.04615C21.5785 9.11038 21.3693 9.45223 21.4271 9.80036C21.4798 10.1098 21.7236 10.3225 22.0019 10.3225Z" fill="#5C546A"/>
<path d="M10.2181 35.2476C10.0905 34.919 9.74813 34.7704 9.45789 34.9127C9.16141 35.0544 9.02819 35.4347 9.15575 35.757C9.2487 36.0019 9.46355 36.1505 9.68406 36.1505C9.76511 36.1505 9.8405 36.131 9.91647 36.0926C10.2124 35.9503 10.3457 35.57 10.2181 35.2476Z" fill="#5C546A"/>
<path d="M30.7845 45.001C30.483 45.1238 30.3322 45.4978 30.4421 45.8327C30.5294 46.0908 30.7499 46.252 30.988 46.252C31.0515 46.252 31.1212 46.2387 31.1909 46.213C31.4868 46.0839 31.6439 45.7169 31.5334 45.3813C31.4234 45.0464 31.0867 44.8783 30.7845 45.001Z" fill="#5C546A"/>
<path d="M24.1786 46.0916C23.8595 46.0721 23.5868 46.3428 23.5693 46.6972C23.5517 47.0517 23.7954 47.3614 24.1151 47.3809C24.1264 47.3809 24.1321 47.3809 24.144 47.3809C24.4512 47.3809 24.7069 47.1165 24.7245 46.7747C24.7415 46.4202 24.4977 46.1104 24.1786 46.0916Z" fill="#5C546A"/>
<path d="M32.9556 12.2255C33.0429 12.2771 33.1416 12.3029 33.2346 12.3029C33.4375 12.3029 33.6405 12.1804 33.7453 11.9677C33.8961 11.6582 33.7975 11.2651 33.5186 11.0973C33.2346 10.9232 32.8803 11.0327 32.7295 11.3488C32.5724 11.6582 32.6773 12.0514 32.9556 12.2255Z" fill="#5C546A"/>
<path d="M26.4194 46.0657C26.1002 46.0978 25.8621 46.4069 25.8911 46.762C25.9086 47.097 26.1637 47.3551 26.4659 47.3551C26.4829 47.3551 26.4948 47.3551 26.5124 47.3551C26.8315 47.3224 27.0696 47.0132 27.0464 46.6587C27.0231 46.3042 26.7385 46.0399 26.4194 46.0657Z" fill="#5C546A"/>
<path d="M8.3895 26.0426C8.41896 26.0489 8.44225 26.0489 8.47113 26.0489C8.75571 26.0489 9.0051 25.8165 9.04595 25.4942C9.09188 25.1398 8.87137 24.8174 8.55218 24.7658C8.23299 24.7141 7.94282 24.959 7.89631 25.3142C7.84987 25.6623 8.07038 25.9909 8.3895 26.0426Z" fill="#5C546A"/>
<path d="M8.29699 28.6159C8.62184 28.6159 8.88313 28.3326 8.88313 27.9782C8.88313 27.6168 8.6275 27.3335 8.30831 27.3265C7.98346 27.3265 7.72217 27.6168 7.72217 27.9712C7.72217 28.3263 7.97729 28.6159 8.29699 28.6159Z" fill="#5C546A"/>
<path d="M8.52323 31.1834C8.84235 31.1381 9.06859 30.8158 9.02266 30.4613C8.98181 30.1069 8.69157 29.8619 8.37245 29.9066C8.05275 29.952 7.83224 30.2743 7.87302 30.6288C7.91387 30.958 8.16326 31.1897 8.44784 31.1897C8.47672 31.1897 8.50001 31.1897 8.52323 31.1834Z" fill="#5C546A"/>
<path d="M38.4876 17.3083C38.6095 17.3083 38.7313 17.2632 38.8357 17.1729C39.0913 16.9538 39.1378 16.5477 38.9462 16.2704C38.7489 15.9868 38.3827 15.9352 38.1276 16.1479C37.8782 16.3671 37.8317 16.7734 38.0233 17.057C38.139 17.2183 38.3073 17.3083 38.4876 17.3083Z" fill="#5C546A"/>
<path d="M10.4564 37.241C10.1774 37.4279 10.0907 37.8214 10.2591 38.1243C10.3691 38.3244 10.5606 38.434 10.7579 38.434C10.8565 38.434 10.9615 38.4082 11.0601 38.3434C11.3328 38.1564 11.42 37.7573 11.2517 37.4538C11.0833 37.1509 10.7291 37.054 10.4564 37.241Z" fill="#5C546A"/>
<path d="M36.9493 15.3731C37.0944 15.3731 37.2452 15.3089 37.3614 15.1865C37.582 14.9284 37.5819 14.5223 37.3558 14.2708C37.1234 14.0196 36.7577 14.0259 36.5316 14.2774C36.3054 14.5352 36.3111 14.9413 36.5372 15.1928C36.6534 15.3152 36.7985 15.3731 36.9493 15.3731Z" fill="#5C546A"/>
<path d="M32.828 43.9755C32.5434 44.1429 32.4391 44.5364 32.5899 44.8525C32.6943 45.0646 32.8977 45.1874 33.1063 45.1874C33.1936 45.1874 33.2923 45.1616 33.3796 45.1099C33.6579 44.9425 33.7684 44.549 33.6114 44.2399C33.4606 43.9239 33.1063 43.808 32.828 43.9755Z" fill="#5C546A"/>
<path d="M15.82 42.8663C15.5587 42.6597 15.1987 42.7309 15.0128 43.0205C14.8274 43.3171 14.8909 43.7168 15.1579 43.9233C15.2565 44.0007 15.3728 44.0392 15.489 44.0392C15.6687 44.0392 15.849 43.9429 15.9652 43.7621C16.1505 43.4719 16.0807 43.0721 15.82 42.8663Z" fill="#5C546A"/>
<path d="M34.7202 42.6464C34.4646 42.8592 34.4068 43.259 34.5983 43.5492C34.7088 43.7236 34.8886 43.8136 35.0626 43.8136C35.1845 43.8136 35.3006 43.7746 35.405 43.6908C35.6663 43.478 35.7247 43.072 35.5331 42.7887C35.3415 42.4984 34.9816 42.4405 34.7202 42.6464Z" fill="#5C546A"/>
<path d="M39.7707 19.45C39.8693 19.45 39.968 19.4242 40.0553 19.3663C40.3336 19.1922 40.4322 18.7987 40.2758 18.4893C40.1131 18.1798 39.7588 18.0703 39.4805 18.251C39.2015 18.4251 39.1029 18.8182 39.2656 19.1277C39.3699 19.3339 39.5672 19.45 39.7707 19.45Z" fill="#5C546A"/>
<path d="M40.9197 23.74C40.9838 24.0365 41.2275 24.2298 41.4889 24.2298C41.5297 24.2298 41.5756 24.2235 41.6221 24.2109C41.9356 24.1265 42.1272 23.7784 42.0518 23.4302C41.9708 23.089 41.6572 22.8762 41.3494 22.9599C41.036 23.0436 40.8443 23.3917 40.9197 23.74Z" fill="#5C546A"/>
<path d="M17.7412 44.1495C17.4566 43.9883 17.1029 44.111 16.9578 44.4271C16.8127 44.7425 16.9227 45.136 17.2129 45.2972C17.2945 45.3425 17.3869 45.3683 17.4743 45.3683C17.6835 45.3683 17.8864 45.2392 17.9907 45.0139C18.1358 44.6978 18.0258 44.3106 17.7412 44.1495Z" fill="#5C546A"/>
<path d="M40.2405 21.3725C40.2348 21.3725 40.2348 21.3725 40.2348 21.3725C40.3278 21.6237 40.5483 21.7786 40.7745 21.7786C40.8499 21.7786 40.9197 21.7591 40.9894 21.7333C41.2915 21.5979 41.4367 21.224 41.3148 20.889C41.1985 20.56 40.8618 20.3988 40.5597 20.5342C40.2637 20.6633 40.1186 21.037 40.2405 21.3725Z" fill="#5C546A"/>
<path d="M11.7334 39.3952C11.4835 39.6213 11.4432 40.0274 11.6462 40.3043C11.7624 40.4592 11.9307 40.5367 12.0991 40.5367C12.2266 40.5367 12.3542 40.4913 12.4647 40.395C12.7142 40.1689 12.7493 39.7629 12.5458 39.4859C12.3429 39.2088 11.9773 39.1698 11.7334 39.3952Z" fill="#5C546A"/>
<path d="M8.79579 23.5009C8.84796 23.5204 8.90064 23.5266 8.95281 23.5266C9.20793 23.5266 9.44034 23.346 9.51573 23.0626C9.60302 22.7208 9.42278 22.36 9.11498 22.2631C8.80776 22.1661 8.48799 22.36 8.39562 22.7081C8.30825 23.0494 8.48799 23.4045 8.79579 23.5009Z" fill="#5C546A"/>
<path d="M26.5702 10.0711C26.5878 10.0711 26.6054 10.0711 26.6224 10.0711C26.9183 10.0711 27.174 9.81955 27.2029 9.48431C27.2261 9.1299 26.9943 8.81384 26.6746 8.78797C26.3555 8.7559 26.0709 9.01369 26.0419 9.37472C26.013 9.72293 26.2511 10.039 26.5702 10.0711Z" fill="#5C546A"/>
<path d="M42.0585 26.1292C42.0692 26.1298 42.0799 26.131 42.0906 26.1319C42.1088 26.1333 42.127 26.1345 42.1451 26.1365C42.1587 26.138 42.1721 26.1402 42.1856 26.1421C42.2006 26.1441 42.2156 26.1459 42.2304 26.1483C42.2456 26.1508 42.2606 26.1541 42.2756 26.157C42.2884 26.1595 42.3013 26.1618 42.314 26.1646C42.3305 26.1683 42.3468 26.1726 42.3631 26.1768C42.3741 26.1796 42.3851 26.1822 42.396 26.1852C42.4135 26.1901 42.4307 26.1956 42.448 26.201C42.4511 26.2019 42.4543 26.2028 42.4574 26.2039C42.4622 26.1577 42.4627 26.1102 42.4581 26.0619C42.4235 25.7075 42.139 25.45 41.8254 25.4884C41.5001 25.5205 41.2738 25.8365 41.3028 26.191C41.3051 26.2177 41.3095 26.2436 41.3147 26.2692C41.5171 26.1777 41.7384 26.1269 41.9706 26.1269C42 26.1267 42.0293 26.1276 42.0585 26.1292Z" fill="#5C546A"/>
<path d="M41.5929 32.0805C41.2794 31.9905 40.9659 32.197 40.8849 32.5452C40.8038 32.8864 40.9949 33.2415 41.3027 33.3252C41.3548 33.3441 41.4013 33.351 41.4478 33.351C41.7091 33.351 41.9416 33.1571 42.0107 32.8606C42.0866 32.5193 41.9007 32.1643 41.5929 32.0805Z" fill="#5C546A"/>
<path d="M38.7488 39.0859C38.4988 38.8668 38.1332 38.9115 37.9359 39.1954C37.7386 39.4725 37.7794 39.8786 38.0345 40.0982C38.1388 40.1945 38.2669 40.2399 38.3888 40.2399C38.5628 40.2399 38.7312 40.1562 38.8474 39.9887C39.0447 39.7111 39.0039 39.305 38.7488 39.0859Z" fill="#5C546A"/>
<path d="M13.2598 41.3374C13.0393 41.5948 13.0563 42.0009 13.2887 42.2465C13.3992 42.3623 13.5444 42.4202 13.6833 42.4202C13.8403 42.4202 13.9968 42.349 14.113 42.2137C14.3279 41.9499 14.3103 41.5432 14.0784 41.2983C13.846 41.0597 13.4747 41.0729 13.2598 41.3374Z" fill="#5C546A"/>
<path d="M36.4385 41.0469C36.2061 41.2918 36.2004 41.6979 36.4209 41.956C36.5372 42.0851 36.688 42.1556 36.8393 42.1556C36.9844 42.1556 37.1296 42.0914 37.2396 41.9687C37.472 41.7238 37.4776 41.3177 37.2571 41.0596C37.0309 40.802 36.6647 40.7958 36.4385 41.0469Z" fill="#5C546A"/>
<path d="M40.9372 34.5574C40.6413 34.4158 40.3046 34.577 40.1827 34.9056C40.0608 35.2349 40.2003 35.6151 40.4962 35.7504C40.5716 35.7825 40.647 35.7958 40.7167 35.7958C40.9491 35.7958 41.1634 35.6472 41.2564 35.396C41.3782 35.0668 41.2331 34.6865 40.9372 34.5574Z" fill="#5C546A"/>
<path d="M41.3484 29.8698C41.3156 29.9395 41.2933 30.0169 41.2852 30.1006C41.2505 30.4488 41.483 30.7711 41.8021 30.8095C41.8197 30.8158 41.843 30.8158 41.8656 30.8158C42.1559 30.8158 42.4115 30.5709 42.4405 30.2423C42.451 30.1351 42.4374 30.0311 42.4048 29.9367C42.2659 29.9763 42.1205 29.9974 41.9705 29.9974C41.7513 29.9973 41.5417 29.9519 41.3484 29.8698Z" fill="#5C546A"/>
<path d="M39.9852 36.9058C39.7063 36.7251 39.3525 36.8284 39.1955 37.1375C39.0328 37.4473 39.1258 37.8408 39.3985 38.0208C39.4914 38.0794 39.5963 38.1045 39.6949 38.1045C39.8922 38.1045 40.0895 37.9887 40.1938 37.7822C40.3566 37.4794 40.2635 37.0796 39.9852 36.9058Z" fill="#5C546A"/>
<path d="M21.9614 45.7815C21.9614 45.7753 21.9614 45.7753 21.9614 45.7753C21.6417 45.7104 21.34 45.9364 21.276 46.2846C21.2126 46.6327 21.4212 46.974 21.7346 47.0451C21.7697 47.0514 21.81 47.0514 21.8451 47.0583C22.1178 47.0583 22.3615 46.8455 22.4137 46.5358C22.4778 46.1876 22.2743 45.8458 21.9614 45.7815Z" fill="#5C546A"/>
<path d="M19.755 10.9741C19.8135 10.9741 19.8769 10.9678 19.941 10.942C20.2426 10.8259 20.4053 10.4648 20.3066 10.1232C20.2023 9.788 19.8713 9.60733 19.5697 9.72346C19.2676 9.83297 19.0992 10.2007 19.2041 10.5356C19.2851 10.8066 19.5113 10.9741 19.755 10.9741Z" fill="#5C546A"/>
<path d="M9.51586 21.0498C9.59125 21.0882 9.6723 21.1077 9.74827 21.1077C9.97444 21.1077 10.1836 20.966 10.2822 20.7208C10.4098 20.3985 10.276 20.0182 9.98576 19.8699C9.68986 19.7279 9.34745 19.8765 9.21988 20.1989C9.08616 20.5276 9.21996 20.9079 9.51586 21.0498Z" fill="#5C546A"/>
<path d="M13.7994 14.8768C13.9389 14.8768 14.0784 14.8252 14.1883 14.7091C14.4264 14.4704 14.4439 14.0644 14.2291 13.8C14.0086 13.5359 13.643 13.5163 13.4049 13.7613C13.1669 13.9999 13.1493 14.406 13.3698 14.6704C13.4803 14.8057 13.6368 14.8768 13.7994 14.8768Z" fill="#5C546A"/>
<path d="M11.82 16.5924C11.9306 16.6956 12.0638 16.7407 12.1919 16.7407C12.3603 16.7407 12.5287 16.6633 12.6443 16.5087C12.8478 16.238 12.8126 15.8319 12.5632 15.5996C12.3195 15.3739 11.9538 15.4126 11.7503 15.6837C11.5417 15.9606 11.5762 16.3667 11.82 16.5924Z" fill="#5C546A"/>
<path d="M10.5318 18.7342C10.6247 18.7984 10.7291 18.8308 10.8333 18.8308C11.0312 18.8308 11.2165 18.7213 11.3271 18.5277C11.5011 18.2248 11.4138 17.825 11.1411 17.6381C10.8741 17.4511 10.5141 17.5415 10.3458 17.8443C10.1718 18.1474 10.2591 18.5472 10.5318 18.7342Z" fill="#5C546A"/>
<path d="M19.7962 45.1239C19.4947 45.0074 19.1636 45.1881 19.0593 45.523C18.9545 45.8586 19.1115 46.2263 19.4187 46.3484C19.4828 46.3679 19.5468 46.3805 19.6047 46.3805C19.8484 46.3805 20.0689 46.213 20.1563 45.9486C20.2605 45.6074 20.1041 45.246 19.7962 45.1239Z" fill="#5C546A"/>
<path d="M17.6137 11.9675C17.7004 11.9675 17.7877 11.9483 17.8751 11.8967C18.1591 11.7418 18.2753 11.3486 18.1302 11.0326C17.9907 10.7168 17.6427 10.5877 17.3524 10.7426V10.7489C17.0678 10.9038 16.9517 11.2907 17.0968 11.613C17.1954 11.8384 17.4046 11.9675 17.6137 11.9675Z" fill="#5C546A"/>
<path d="M30.9238 11.1804C30.9935 11.2062 31.0632 11.2191 31.133 11.2191C31.3648 11.2191 31.5853 11.0645 31.6727 10.8067C31.7889 10.4715 31.638 10.0975 31.3416 9.97506C31.04 9.84596 30.7032 10.0137 30.5927 10.3491C30.477 10.6777 30.6279 11.0516 30.9238 11.1804Z" fill="#5C546A"/>
<path d="M15.6165 13.2768C15.7271 13.2768 15.8433 13.2383 15.9419 13.1609C16.2089 12.9611 16.2724 12.5613 16.0927 12.2647C15.9124 11.9748 15.553 11.8973 15.286 12.1035C15.0247 12.3034 14.9549 12.7032 15.1347 12.9997C15.2509 13.1802 15.4312 13.2768 15.6165 13.2768Z" fill="#5C546A"/>
<path d="M28.6372 45.704C28.3238 45.7815 28.1259 46.1233 28.1956 46.4715C28.254 46.7743 28.4921 46.9808 28.7591 46.9808C28.7994 46.9808 28.8458 46.9738 28.8867 46.9613C29.2001 46.8838 29.3974 46.542 29.3277 46.1938C29.258 45.8457 28.9502 45.6266 28.6372 45.704Z" fill="#5C546A"/>
<path d="M28.7822 10.4579C28.8281 10.4708 28.8689 10.4708 28.9154 10.4708C29.1768 10.4708 29.4148 10.2709 29.4783 9.97436C29.5481 9.62623 29.3564 9.27802 29.043 9.20058C28.7295 9.12313 28.416 9.33596 28.3468 9.68409C28.2771 10.0323 28.4687 10.3738 28.7822 10.4579Z" fill="#5C546A"/>
<path d="M26.6812 21.1761C27.7658 21.4761 28.7406 22.0846 29.5266 22.9122C29.2735 22.8784 29.0164 22.8588 28.7552 22.8588C25.2287 22.8588 22.3699 26.0356 22.3699 29.9544C22.3699 31.9829 23.1372 33.8112 24.3653 35.1044C22.291 34.8265 20.5226 33.4443 19.5513 31.5021C20.6409 33.6822 22.7336 35.1577 25.1369 35.1577C28.6634 35.1577 31.5222 31.981 31.5222 28.0622C31.5221 24.7353 29.4615 21.9437 26.6812 21.1761Z" fill="#708AFF"/>
<path d="M24.3652 35.1044C23.1371 33.8113 22.3697 31.9829 22.3697 29.9544C22.3697 26.0357 25.2285 22.8589 28.755 22.8589C29.0163 22.8589 29.2734 22.8784 29.5265 22.9123C28.7404 22.0847 27.7657 21.4761 26.6811 21.1762C26.6787 21.1756 26.6762 21.1749 26.6737 21.1742C26.5782 21.1479 26.4819 21.124 26.3848 21.1027C26.38 21.1016 26.3751 21.1006 26.3703 21.0996C26.2748 21.0788 26.1786 21.0602 26.0817 21.0443C26.0756 21.0433 26.0695 21.0424 26.0634 21.0415C25.9671 21.0259 25.87 21.0125 25.7724 21.0017C25.7664 21.0011 25.7604 21.0006 25.7545 20.9999C25.656 20.9895 25.5569 20.9811 25.4572 20.9757C25.4531 20.9754 25.4491 20.9753 25.445 20.9752C25.3428 20.9698 25.2401 20.9668 25.1368 20.9668C21.6103 20.9668 18.7515 24.1436 18.7515 28.0623C18.7515 28.1691 18.754 28.2752 18.7582 28.3808C18.7586 28.3903 18.7588 28.3999 18.7592 28.4094C18.7635 28.51 18.77 28.6099 18.7782 28.7093C18.7793 28.7231 18.7803 28.737 18.7815 28.7508C18.7899 28.8479 18.8002 28.9443 18.8121 29.0401C18.814 29.0553 18.8159 29.0705 18.8179 29.0856C18.8303 29.1811 18.8443 29.276 18.8602 29.3703C18.8625 29.3842 18.8649 29.3982 18.8674 29.4122C18.884 29.5079 18.9022 29.603 18.9221 29.6973C18.9244 29.7078 18.9268 29.7182 18.929 29.7287C18.9502 29.8265 18.973 29.9238 18.9978 30.0201C18.9987 30.0237 18.9998 30.0272 19.0007 30.0309C19.0532 30.2332 19.1136 30.4318 19.1815 30.6263C19.1828 30.63 19.184 30.6337 19.1853 30.6374C19.2187 30.7324 19.2539 30.8264 19.2908 30.9194C19.293 30.925 19.2952 30.9305 19.2973 30.9361C19.3343 31.0287 19.373 31.1202 19.4134 31.2107C19.4155 31.2154 19.4177 31.2202 19.4198 31.225C19.4611 31.3169 19.5041 31.4078 19.5488 31.4975C19.5496 31.4991 19.5504 31.5006 19.5512 31.5022C20.5225 33.4444 22.2909 34.8266 24.3652 35.1044Z" fill="#3D6EDD"/>
<path d="M16.3386 16.9893C16.3172 16.9738 16.2955 16.9584 16.2741 16.9433C16.1844 16.8803 16.0941 16.8192 16.0024 16.7596C16.1158 16.8339 16.2282 16.9105 16.3386 16.9893Z" fill="#FFEDB9"/>
<path d="M16.3749 17.0704C16.2943 17.0596 16.2125 17.0533 16.1294 17.0533C15.0073 17.0533 14.0977 18.0641 14.0977 19.311C14.0977 19.9565 14.3419 20.5382 14.7326 20.9497C14.4498 20.9118 14.1849 20.8094 13.9502 20.6562C13.9756 20.6728 14.0013 20.6889 14.0274 20.7042C14.3111 20.8716 14.6346 20.9666 14.9781 20.9666C16.1002 20.9666 17.0098 19.9558 17.0098 18.7089C17.0098 18.1624 16.835 17.6613 16.5441 17.2707C16.4915 17.2001 16.4347 17.1334 16.3749 17.0704Z" fill="#FFEDB9"/>
<path d="M13.1136 19.606C13.1198 19.6217 13.1262 19.6373 13.1327 19.6529C13.1396 19.6696 13.1465 19.6862 13.1537 19.7026C13.1601 19.7171 13.1669 19.7312 13.1735 19.7455C13.1815 19.7626 13.1893 19.7797 13.1977 19.7966C13.2039 19.8091 13.2105 19.8212 13.2168 19.8336C13.2263 19.8518 13.2356 19.8701 13.2454 19.8879C13.2496 19.8956 13.2542 19.903 13.2585 19.9106C13.3028 19.9885 13.3509 20.0636 13.4032 20.1347L13.4038 20.1355C13.42 20.1576 13.4368 20.1792 13.4537 20.2005C13.4565 20.2041 13.4592 20.2079 13.4621 20.2115L13.464 20.2137C13.4802 20.2339 13.4969 20.2536 13.5138 20.273C13.5183 20.2782 13.5227 20.2835 13.5272 20.2886C13.5439 20.3076 13.5612 20.3261 13.5786 20.3445C13.5834 20.3497 13.5882 20.3548 13.5931 20.3599C13.6107 20.3782 13.6288 20.396 13.647 20.4137C13.6518 20.4183 13.6565 20.423 13.6613 20.4275C13.6801 20.4452 13.6992 20.4626 13.7185 20.4796C13.723 20.4835 13.7275 20.4875 13.732 20.4914C13.752 20.5086 13.7722 20.5255 13.7928 20.542C13.7966 20.5451 13.8004 20.548 13.8043 20.5511C13.8258 20.5681 13.8478 20.5847 13.8699 20.6008C13.8724 20.6026 13.875 20.6043 13.8774 20.6062C13.9012 20.6232 13.9251 20.6398 13.9495 20.6557L13.9503 20.6562C14.185 20.8094 14.4499 20.9118 14.7327 20.9497C14.3419 20.5382 14.0978 19.9564 14.0978 19.311C14.0978 18.0641 15.0074 17.0533 16.1295 17.0533C16.2126 17.0533 16.2944 17.0595 16.375 17.0703C16.3524 17.0466 16.3293 17.0233 16.3058 17.0008L16.3047 16.9997C16.2816 16.9775 16.258 16.9559 16.234 16.9349L16.2312 16.9325C16.2078 16.912 16.1838 16.8921 16.1595 16.8727C16.1578 16.8713 16.1561 16.87 16.1544 16.8686C16.1308 16.8499 16.1068 16.8318 16.0825 16.8142C16.0798 16.8123 16.0772 16.8105 16.0746 16.8086C16.051 16.7918 16.027 16.7753 16.0028 16.7595C15.9992 16.7572 15.9955 16.7549 15.9919 16.7526C15.9685 16.7375 15.9447 16.7229 15.9207 16.7089C15.9158 16.706 15.9109 16.7033 15.906 16.7006C15.8829 16.6873 15.8597 16.6745 15.8361 16.6623C15.8299 16.6591 15.8235 16.6561 15.8173 16.6528C15.7947 16.6415 15.772 16.6303 15.7491 16.6199C15.7415 16.6164 15.7337 16.6132 15.726 16.6098C15.7041 16.6001 15.6822 16.5907 15.6599 16.5819C15.6507 16.5782 15.6412 16.5749 15.6319 16.5713C15.6108 16.5633 15.5898 16.5555 15.5684 16.5483C15.5575 16.5446 15.5464 16.5414 15.5354 16.5379C15.5153 16.5315 15.4952 16.5251 15.4748 16.5194C15.4621 16.5158 15.4491 16.5128 15.4362 16.5095C15.4172 16.5046 15.3983 16.4996 15.3791 16.4954C15.3643 16.4921 15.3493 16.4894 15.3344 16.4865C15.3168 16.483 15.2992 16.4793 15.2815 16.4763C15.2643 16.4735 15.2469 16.4714 15.2296 16.469C15.2138 16.4668 15.198 16.4642 15.1821 16.4625C15.1612 16.4602 15.1402 16.4588 15.1192 16.4572C15.1065 16.4563 15.0938 16.4548 15.0811 16.4541C15.047 16.4522 15.0129 16.4512 14.9785 16.4512C13.8564 16.4512 12.9468 17.462 12.9468 18.7088C12.9468 18.7464 12.9477 18.7837 12.9493 18.8209C12.9499 18.8333 12.9509 18.8455 12.9516 18.8578C12.9531 18.8824 12.9545 18.9071 12.9566 18.9315C12.958 18.9463 12.9598 18.961 12.9613 18.9757C12.9636 18.9973 12.9659 19.019 12.9687 19.0406C12.9707 19.0561 12.9733 19.0716 12.9756 19.087C12.9787 19.1074 12.9818 19.1277 12.9854 19.1479C12.9882 19.1638 12.9914 19.1796 12.9945 19.1955C12.9984 19.2148 13.0023 19.2342 13.0066 19.2533C13.0102 19.2695 13.014 19.2855 13.018 19.3015C13.0225 19.3199 13.0271 19.3384 13.032 19.3567C13.0364 19.3729 13.041 19.3891 13.0457 19.4053C13.0508 19.4229 13.0562 19.4404 13.0617 19.4579C13.0669 19.4743 13.0722 19.4906 13.0777 19.5068C13.0833 19.5235 13.0893 19.5401 13.0954 19.5566C13.1012 19.5733 13.1073 19.5897 13.1136 19.606Z" fill="#FFD586"/>
<path d="M43.7118 28.0622C43.7118 27.4769 43.4777 26.9528 43.1082 26.5979C43.1284 26.6173 43.1482 26.6372 43.1676 26.6576C43.0986 26.6484 43.0285 26.6431 42.9572 26.6431C41.9954 26.6431 41.2158 27.5094 41.2158 28.5782C41.2158 29.1314 41.425 29.63 41.76 29.9827C41.4911 29.9467 41.2412 29.8426 41.0244 29.6866C41.1256 29.7594 41.234 29.821 41.3482 29.8697C41.5415 29.9519 41.751 29.9973 41.9703 29.9973C42.1203 29.9973 42.2658 29.9762 42.4047 29.9366C43.1563 29.7223 43.7118 28.9643 43.7118 28.0622Z" fill="#FF7400"/>
<path d="M41.76 29.9829C41.4251 29.6303 41.2158 29.1316 41.2158 28.5784C41.2158 27.5097 41.9955 26.6433 42.9573 26.6433C43.0285 26.6433 43.0986 26.6486 43.1677 26.6579C43.1483 26.6375 43.1285 26.6176 43.1083 26.5981L43.1076 26.5975C43.0877 26.5784 43.0674 26.5598 43.0468 26.5418L43.0446 26.5397C43.0244 26.5222 43.0038 26.5051 42.983 26.4885C42.9816 26.4873 42.9802 26.4862 42.9787 26.4851C42.9584 26.469 42.9379 26.4535 42.9169 26.4384C42.9147 26.4368 42.9125 26.4353 42.9102 26.4336C42.89 26.4191 42.8694 26.4051 42.8486 26.3915C42.8455 26.3895 42.8424 26.3876 42.8393 26.3857C42.8192 26.3728 42.7988 26.3602 42.7782 26.3482C42.774 26.3458 42.7699 26.3435 42.7658 26.3411C42.746 26.3297 42.7259 26.3187 42.7057 26.3082C42.7005 26.3054 42.6951 26.3029 42.6898 26.3002C42.6704 26.2904 42.6509 26.2808 42.6312 26.2718C42.6246 26.2688 42.618 26.2661 42.6114 26.2632C42.5926 26.2549 42.5738 26.2468 42.5546 26.2392C42.5467 26.2361 42.5387 26.2333 42.5308 26.2303C42.5127 26.2234 42.4946 26.2167 42.4763 26.2105C42.47 26.2084 42.4636 26.2065 42.4573 26.2045C42.4542 26.2035 42.451 26.2026 42.4479 26.2016C42.4306 26.1961 42.4134 26.1906 42.3959 26.1858C42.385 26.1827 42.374 26.1801 42.363 26.1774C42.3467 26.1732 42.3303 26.1689 42.3139 26.1652C42.3012 26.1624 42.2883 26.1601 42.2755 26.1576C42.2605 26.1547 42.2454 26.1515 42.2303 26.1489C42.2155 26.1464 42.2005 26.1447 42.1855 26.1426C42.172 26.1408 42.1586 26.1386 42.145 26.1371C42.1269 26.1351 42.1087 26.1339 42.0905 26.1325C42.0797 26.1317 42.0691 26.1305 42.0584 26.1298C42.0292 26.1282 41.9999 26.1273 41.9704 26.1273C41.7383 26.1273 41.517 26.1782 41.3145 26.2697C40.6779 26.5575 40.229 27.2515 40.229 28.0623C40.229 28.1206 40.2318 28.1781 40.2363 28.235C40.2367 28.2401 40.2368 28.2453 40.2373 28.2504C40.2421 28.3046 40.2491 28.3579 40.2577 28.4107C40.259 28.418 40.26 28.4254 40.2613 28.4327C40.2703 28.4842 40.2812 28.5348 40.2938 28.5846C40.2958 28.5924 40.2977 28.6001 40.2997 28.6079C40.3129 28.6574 40.3276 28.7062 40.3442 28.754C40.3466 28.761 40.3491 28.7679 40.3516 28.7748C40.3689 28.8233 40.3877 28.871 40.4083 28.9175C40.4105 28.9223 40.4127 28.9271 40.4149 28.9319C40.4368 28.9802 40.4602 29.0275 40.4855 29.0733L40.4876 29.077C40.5411 29.1732 40.602 29.264 40.6694 29.348C40.6694 29.348 40.6711 29.3503 40.6721 29.3514C40.7051 29.3926 40.7399 29.432 40.776 29.4698C40.7778 29.4717 40.7797 29.4737 40.7815 29.4756C40.8175 29.513 40.8551 29.5487 40.8938 29.5827C40.8957 29.5844 40.8976 29.5861 40.8995 29.5877C40.9389 29.6219 40.9796 29.6542 41.0216 29.6846L41.0246 29.6868C41.2413 29.8428 41.4912 29.9469 41.76 29.9829Z" fill="#D55A00"/>
<path d="M26.878 39.0281C26.878 39.0044 26.8771 38.9809 26.8764 38.9575C26.8761 38.9484 26.8762 38.9392 26.8757 38.9301C26.8512 38.3845 26.6231 37.8988 26.2743 37.5638C26.2945 37.5833 26.3143 37.6032 26.3337 37.6236C26.2647 37.6143 26.1945 37.609 26.1233 37.609C25.1615 37.609 24.3818 38.4754 24.3818 39.5441C24.3818 40.0974 24.5911 40.596 24.926 40.9487C24.995 40.9579 25.0652 40.9632 25.1365 40.9632C26.0983 40.9632 26.878 40.0969 26.878 39.0281Z" fill="#FFD042"/>
<path d="M24.3822 39.5441C24.3822 38.4753 25.1618 37.6089 26.1236 37.6089C26.1949 37.6089 26.265 37.6143 26.334 37.6235C26.3147 37.6031 26.2949 37.5832 26.2746 37.5638L26.274 37.5631C26.2541 37.544 26.2338 37.5255 26.2132 37.5074L26.2109 37.5054C26.1907 37.4878 26.1702 37.4707 26.1494 37.4541C26.1479 37.453 26.1466 37.4519 26.1451 37.4507C26.1248 37.4347 26.1042 37.4191 26.0833 37.4041C26.0811 37.4024 26.0789 37.4009 26.0766 37.3993C26.0564 37.3848 26.0358 37.3708 26.015 37.3572C26.0119 37.3552 26.0088 37.3533 26.0056 37.3512C25.9855 37.3383 25.9652 37.3258 25.9446 37.3138C25.9405 37.3114 25.9363 37.3091 25.9321 37.3067C25.9123 37.2954 25.8923 37.2844 25.8721 37.2739C25.8668 37.2712 25.8615 37.2686 25.8562 37.2659C25.8368 37.2561 25.8173 37.2466 25.7975 37.2376C25.791 37.2346 25.7843 37.2318 25.7778 37.2289C25.759 37.2206 25.7401 37.2126 25.7211 37.205C25.7131 37.2018 25.7052 37.199 25.6972 37.196C25.6791 37.1892 25.661 37.1825 25.6427 37.1763C25.6333 37.1731 25.6238 37.1703 25.6143 37.1673C25.5971 37.1618 25.5799 37.1564 25.5624 37.1515C25.5516 37.1485 25.5405 37.1459 25.5294 37.1431C25.5132 37.1389 25.4969 37.1346 25.4804 37.131C25.4678 37.1281 25.4548 37.1259 25.442 37.1233C25.427 37.1203 25.412 37.1172 25.3969 37.1147C25.3821 37.1122 25.367 37.1104 25.3521 37.1084C25.3386 37.1065 25.3252 37.1043 25.3115 37.1028C25.2935 37.1008 25.2752 37.0996 25.257 37.0982C25.2463 37.0974 25.2357 37.0962 25.225 37.0956C25.1958 37.094 25.1665 37.0931 25.1369 37.0931C24.1752 37.0931 23.3955 37.9595 23.3955 39.0283C23.3955 39.0866 23.3983 39.1441 23.4028 39.201C23.4032 39.2062 23.4033 39.2113 23.4039 39.2164C23.4086 39.2706 23.4156 39.3239 23.4242 39.3767C23.4255 39.384 23.4265 39.3914 23.4278 39.3987C23.4368 39.4501 23.4478 39.5008 23.4603 39.5506C23.4623 39.5584 23.4642 39.5661 23.4663 39.5738C23.4794 39.6234 23.4941 39.6722 23.5107 39.72C23.5131 39.727 23.5156 39.7339 23.5181 39.7408C23.5354 39.7893 23.5542 39.8369 23.5748 39.8835C23.577 39.8883 23.5792 39.8931 23.5814 39.8979C23.6033 39.9461 23.6267 39.9934 23.652 40.0392C23.6527 40.0405 23.6535 40.0417 23.6542 40.043C23.7077 40.1393 23.7685 40.2299 23.8359 40.314C23.8368 40.3152 23.8376 40.3163 23.8386 40.3174C23.8716 40.3585 23.9064 40.3979 23.9425 40.4357C23.9444 40.4376 23.9462 40.4397 23.9481 40.4416C23.984 40.479 24.0215 40.5146 24.0602 40.5485C24.0622 40.5502 24.0641 40.5519 24.0661 40.5536C24.1054 40.5877 24.1461 40.6201 24.188 40.6504L24.1911 40.6527C24.4079 40.8087 24.6578 40.9128 24.9265 40.9488C24.5914 40.5959 24.3822 40.0973 24.3822 39.5441Z" fill="#DBB246"/>
</svg>
