<svg width="24" height="24" viewBox="0 0 24 24" fill="none" xmlns="http://www.w3.org/2000/svg">
<path d="M23.7818 7.39994C23.4203 6.9581 22.7365 6.86857 22.2545 7.19992L18.8585 9.53465L16.6869 6.21692L17.1396 5.70969C17.5655 5.89564 18.0421 5.99994 18.5454 5.99994C20.3533 5.99994 21.8181 4.65722 21.8181 2.99997C21.8181 1.34272 20.3533 0 18.5454 0C16.7375 0 15.2727 1.34272 15.2727 2.99997C15.2727 3.46323 15.3873 3.90179 15.5917 4.29342C15.5666 4.31658 15.5423 4.34091 15.5193 4.36669L15.0031 4.94493L8.90656 4.01354C8.90314 4.01302 8.89971 4.01269 8.89634 4.01222C8.88897 4.01119 8.88161 4.0103 8.87424 4.00936C8.84489 4.00571 8.81569 4.00299 8.7866 4.00149C8.78266 4.0013 8.77877 4.00121 8.77484 4.00107C8.59816 3.9938 8.42726 4.02586 8.27396 4.09022C8.27135 4.0913 8.26879 4.09257 8.26613 4.09369C8.23826 4.10564 8.2109 4.11858 8.18426 4.1326C8.17869 4.13555 8.17322 4.13869 8.1677 4.14169C8.14264 4.15543 8.11809 4.16991 8.09437 4.18538C8.08889 4.18894 8.08363 4.19274 8.07821 4.19644C8.05427 4.21266 8.03096 4.22967 8.00851 4.24763C8.00467 4.25072 8.00094 4.25396 7.99716 4.25714C7.97333 4.27683 7.95031 4.29741 7.92838 4.31897C7.92649 4.32085 7.92464 4.32277 7.9228 4.32464C7.89908 4.34831 7.87658 4.37311 7.85541 4.39889L7.85454 4.39983L4.58181 8.39977C4.22033 8.84161 4.318 9.46837 4.80001 9.79977C5.28202 10.1311 5.96577 10.0416 6.3273 9.59976L9.20213 6.08614L13.4106 6.72912L6.02846 14.9998H1.09089C0.488403 14.9998 0 15.4475 0 15.9998C0 16.5521 0.488403 16.9998 1.09089 16.9998H6.54545L6.54708 16.9997C6.58303 16.9996 6.61893 16.998 6.65467 16.9947C6.6738 16.993 6.69236 16.9897 6.71118 16.987C6.72734 16.9848 6.74355 16.9832 6.75955 16.9803C6.78154 16.9763 6.80287 16.9708 6.8244 16.9656C6.83718 16.9625 6.85007 16.96 6.8627 16.9565C6.88269 16.9509 6.90202 16.9441 6.92155 16.9375C6.93551 16.9328 6.94968 16.9287 6.96349 16.9234C6.98016 16.9171 6.99611 16.9097 7.01232 16.9026C7.02843 16.8956 7.04474 16.889 7.06054 16.8813C7.07374 16.8748 7.08626 16.8673 7.09915 16.8603C7.117 16.8507 7.135 16.8414 7.15228 16.8308C7.16328 16.824 7.1735 16.8164 7.18419 16.8093C7.20219 16.7973 7.22034 16.7857 7.23763 16.7726C7.25026 16.7631 7.26192 16.7526 7.27409 16.7425C7.2882 16.7309 7.30272 16.7199 7.31628 16.7074C7.34169 16.6841 7.36583 16.6597 7.38863 16.6342L7.38971 16.6331L11.5001 12.028L15.1599 16.2214L13.1328 22.725C12.9673 23.2561 13.3028 23.8095 13.8821 23.9613C14.4614 24.113 15.0652 23.8055 15.2307 23.2745L17.4125 16.2745C17.4192 16.2533 17.4247 16.2319 17.4298 16.2106C17.4307 16.2065 17.4316 16.2025 17.4325 16.1984C17.4389 16.1696 17.4439 16.1408 17.4475 16.112L17.448 16.1075C17.4556 16.044 17.4566 15.9807 17.451 15.9185C17.4482 15.8871 17.4437 15.8555 17.4377 15.8247C17.4373 15.8226 17.4368 15.8206 17.4364 15.8186C17.4305 15.7895 17.4234 15.7608 17.4148 15.7324C17.4135 15.7281 17.412 15.724 17.4107 15.7197C17.4022 15.6932 17.3928 15.6671 17.382 15.6414C17.3797 15.6359 17.3771 15.6305 17.3747 15.6251C17.3637 15.6001 17.3518 15.5755 17.3386 15.5515C17.3358 15.5464 17.3327 15.5413 17.3298 15.5361C17.3156 15.5113 17.3004 15.487 17.284 15.4633C17.2814 15.4596 17.2787 15.456 17.2761 15.4523C17.258 15.4269 17.2387 15.4023 17.2181 15.3785L17.2154 15.3751L12.9129 10.4451L15.219 7.86146L17.6095 11.5135C17.6193 11.5286 17.6309 11.5429 17.6417 11.5577C17.6732 11.6006 17.7069 11.6415 17.7441 11.6785L17.7451 11.6793C17.7695 11.7035 17.7949 11.7264 17.8214 11.7479C17.8305 11.7554 17.8403 11.7618 17.8497 11.7689C17.8677 11.7826 17.8855 11.7965 17.9043 11.809C17.9199 11.8194 17.9363 11.8284 17.9523 11.838C17.9658 11.8459 17.9788 11.8546 17.9926 11.862C18.0117 11.8722 18.0315 11.881 18.0511 11.8902C18.0627 11.8956 18.074 11.9017 18.0858 11.9067C18.1059 11.9152 18.1265 11.9223 18.1471 11.9297C18.1592 11.934 18.1711 11.939 18.1833 11.943C18.2025 11.9492 18.2221 11.9539 18.2416 11.959C18.2559 11.9628 18.2699 11.9672 18.2843 11.9705C18.3014 11.9744 18.3188 11.9769 18.336 11.98C18.3533 11.9831 18.3704 11.9867 18.3878 11.9891C18.4025 11.9911 18.4173 11.9918 18.432 11.9932C18.4522 11.9952 18.4724 11.9975 18.4927 11.9985C18.5056 11.999 18.5187 11.9985 18.5316 11.9987C18.5537 11.9989 18.5757 11.9995 18.5978 11.9986C18.6108 11.998 18.6237 11.9963 18.6368 11.9953C18.6587 11.9936 18.6807 11.9923 18.7026 11.9894C18.7183 11.9873 18.7338 11.9838 18.7495 11.9811C18.7684 11.9778 18.7874 11.9751 18.8061 11.9709C18.8288 11.9658 18.8511 11.959 18.8735 11.9526C18.885 11.9492 18.8967 11.9467 18.9081 11.943C18.9417 11.9322 18.9748 11.9197 19.0074 11.9057C19.0574 11.8842 19.1065 11.8575 19.1535 11.8285C19.1693 11.8187 19.1857 11.8095 19.2008 11.7992L23.5637 8.79975C24.0456 8.46854 24.1432 7.84173 23.7818 7.39994ZM18.5454 1.99999C19.1483 1.99999 19.6363 2.44727 19.6363 2.99997C19.6363 3.55267 19.1483 3.99994 18.5454 3.99994C17.9425 3.99994 17.4545 3.55267 17.4545 2.99997C17.4545 2.44727 17.9425 1.99999 18.5454 1.99999Z" fill="#253C4F"/>
</svg>
