<svg width="175" height="21" viewBox="0 0 175 21" fill="none" xmlns="http://www.w3.org/2000/svg">
<path d="M39.6098 15.0868C37.1889 15.0868 35.2162 13.0624 35.2162 10.5705C35.2162 8.0786 37.1889 6.0542 39.6098 6.0542C42.0309 6.0542 44.0036 8.0786 44.0036 10.5705C44.0036 13.0624 42.0309 15.0868 39.6098 15.0868ZM49.6485 10.1315C47.0482 5.96883 43.543 3.67612 39.7892 3.67612C36.0353 3.67612 32.5302 5.96883 29.9299 10.1315C29.7629 10.3998 29.7629 10.7412 29.9299 11.0095C32.5302 15.1722 36.0353 17.4649 39.7892 17.4649C43.543 17.4649 47.0441 15.1722 49.6485 11.0095C49.8157 10.7412 49.8157 10.3998 49.6485 10.1315Z" fill="#AC1754"/>
<mask id="path-2-outside-1_2127_1217" maskUnits="userSpaceOnUse" x="0" y="0" width="175" height="21" fill="black">
<rect fill="white" width="175" height="21"/>
<path d="M7.13086 20.0351L1 1.08123H2.97435L8.71553 18.9249H7.72836L13.6514 1.08123H15.4179L21.263 18.9249H20.3278L26.1209 1.08123H27.9654L21.8345 20.0351H19.8082L14.2229 3.112H14.7425L9.13118 20.0351H7.13086ZM52.2678 20.0351V1.08123H59.0741C60.6154 1.08123 61.9403 1.34297 63.0487 1.86646C64.1571 2.3719 65.0058 3.112 65.5946 4.08677C66.2008 5.04349 66.5038 6.2078 66.5038 7.57969C66.5038 8.91549 66.2008 10.0708 65.5946 11.0455C65.0058 12.0023 64.1571 12.7424 63.0487 13.2658C61.9403 13.7713 60.6154 14.024 59.0741 14.024H53.3329L54.1901 13.1034V20.0351H52.2678ZM64.6854 20.0351L60.0093 13.1575H62.0875L66.7896 20.0351H64.6854ZM54.1901 13.2658L53.3329 12.3182H59.0221C60.8406 12.3182 62.2174 11.903 63.1526 11.0726C64.1052 10.2423 64.5812 9.07795 64.5812 7.57969C64.5812 6.06339 64.1052 4.89005 63.1526 4.05969C62.2174 3.22933 60.8406 2.81415 59.0221 2.81415H53.3329L54.1901 1.86646V13.2658ZM72.7037 15.3237L72.6258 12.8868L83.6405 1.08123H85.8487L77.8214 9.85415L76.7303 11.0726L72.7037 15.3237ZM71.0411 20.0351V1.08123H72.9635V20.0351H71.0411ZM84.1081 20.0351L76.2627 10.6123L77.5616 9.15016L86.3942 20.0351H84.1081ZM93.3807 20.1163C92.5321 20.1163 91.6922 19.999 90.8608 19.7643C90.0469 19.5296 89.3195 19.2137 88.6787 18.8166C88.0379 18.4195 87.553 17.9682 87.2239 17.4628L87.6395 17.1108C87.9686 17.5801 88.4362 18.0043 89.0424 18.3834C89.6485 18.7625 90.3326 19.0603 91.0947 19.2769C91.8567 19.4935 92.6274 19.6018 93.4064 19.6018C94.6364 19.6018 95.7274 19.4213 96.68 19.0603C97.6325 18.6812 98.3772 18.1307 98.9141 17.4086C99.451 16.6866 99.7194 15.8111 99.7194 14.7822C99.7194 14.0421 99.5376 13.4464 99.1739 12.9951C98.8275 12.5257 98.3599 12.1467 97.7711 11.8578C97.1995 11.569 96.5674 11.3253 95.8746 11.1268C95.1819 10.9282 94.4891 10.7206 93.7964 10.504C93.1036 10.2693 92.4628 9.99856 91.874 9.69169C91.3025 9.36677 90.8349 8.94256 90.4712 8.41908C90.1248 7.89559 89.9516 7.22769 89.9516 6.41539C89.9516 5.24205 90.246 4.25826 90.8349 3.464C91.4237 2.65169 92.2204 2.03795 93.2246 1.62277C94.2294 1.20759 95.3637 1 96.628 1C97.6152 1 98.5764 1.14441 99.5116 1.43323C100.447 1.72205 101.235 2.13723 101.876 2.67877L101.538 3.13908C100.897 2.61559 100.152 2.21846 99.3038 1.94769C98.4725 1.65887 97.5806 1.51446 96.628 1.51446C95.433 1.51446 94.3679 1.704 93.4327 2.08308C92.4975 2.46215 91.7614 3.01272 91.2245 3.73477C90.705 4.45682 90.4452 5.33231 90.4452 6.36123C90.4452 7.10133 90.6184 7.70605 90.9648 8.17538C91.3285 8.64472 91.7961 9.03282 92.3676 9.33969C92.9564 9.62851 93.5972 9.88123 94.29 10.0978C95 10.2964 95.7015 10.504 96.3942 10.7206C97.087 10.9372 97.7191 11.208 98.2906 11.5329C98.8795 11.8578 99.3471 12.273 99.6935 12.7785C100.057 13.2839 100.239 13.9428 100.239 14.7551C100.239 15.9465 99.9273 16.9393 99.3038 17.7335C98.6976 18.5278 97.875 19.1235 96.8358 19.5206C95.814 19.9177 94.6623 20.1163 93.3807 20.1163ZM106.541 10.152H116.698L116.594 10.6665H106.437L106.541 10.152ZM104.878 19.5206H116.465L116.361 20.0351H104.255L107.892 1.08123H119.608L119.504 1.59569H108.307L104.878 19.5206ZM121.607 20.0351L125.244 1.08123H125.686L135.714 19.4394L135.506 19.3582L139.013 1.08123H139.532L135.895 20.0351H135.454L125.426 1.67692L125.634 1.75815L122.127 20.0351H121.607ZM147.544 20.1163C146.696 20.1163 145.856 19.999 145.024 19.7643C144.21 19.5296 143.483 19.2137 142.842 18.8166C142.201 18.4195 141.716 17.9682 141.387 17.4628L141.803 17.1108C142.132 17.5801 142.6 18.0043 143.206 18.3834C143.812 18.7625 144.496 19.0603 145.258 19.2769C146.02 19.4935 146.791 19.6018 147.57 19.6018C148.8 19.6018 149.891 19.4213 150.843 19.0603C151.796 18.6812 152.541 18.1307 153.078 17.4086C153.615 16.6866 153.883 15.8111 153.883 14.7822C153.883 14.0421 153.701 13.4464 153.337 12.9951C152.991 12.5257 152.523 12.1467 151.935 11.8578C151.363 11.569 150.731 11.3253 150.038 11.1268C149.345 10.9282 148.653 10.7206 147.96 10.504C147.267 10.2693 146.626 9.99856 146.038 9.69169C145.466 9.36677 144.998 8.94256 144.635 8.41908C144.288 7.89559 144.115 7.22769 144.115 6.41539C144.115 5.24205 144.41 4.25826 144.998 3.464C145.587 2.65169 146.384 2.03795 147.388 1.62277C148.393 1.20759 149.527 1 150.792 1C151.779 1 152.74 1.14441 153.675 1.43323C154.61 1.72205 155.398 2.13723 156.039 2.67877L155.701 3.13908C155.061 2.61559 154.316 2.21846 153.467 1.94769C152.636 1.65887 151.744 1.51446 150.792 1.51446C149.597 1.51446 148.531 1.704 147.596 2.08308C146.661 2.46215 145.925 3.01272 145.388 3.73477C144.868 4.45682 144.609 5.33231 144.609 6.36123C144.609 7.10133 144.782 7.70605 145.128 8.17538C145.492 8.64472 145.96 9.03282 146.531 9.33969C147.12 9.62851 147.761 9.88123 148.454 10.0978C149.164 10.2964 149.865 10.504 150.558 10.7206C151.251 10.9372 151.883 11.208 152.454 11.5329C153.043 11.8578 153.511 12.273 153.857 12.7785C154.221 13.2839 154.402 13.9428 154.402 14.7551C154.402 15.9465 154.091 16.9393 153.467 17.7335C152.861 18.5278 152.038 19.1235 150.999 19.5206C149.978 19.9177 148.826 20.1163 147.544 20.1163ZM160.704 10.152H170.862L170.758 10.6665H160.6L160.704 10.152ZM159.042 19.5206H170.628L170.524 20.0351H158.418L162.055 1.08123H173.771L173.668 1.59569H162.471L159.042 19.5206Z"/>
</mask>
<path d="M7.13086 20.0351L1 1.08123H2.97435L8.71553 18.9249H7.72836L13.6514 1.08123H15.4179L21.263 18.9249H20.3278L26.1209 1.08123H27.9654L21.8345 20.0351H19.8082L14.2229 3.112H14.7425L9.13118 20.0351H7.13086ZM52.2678 20.0351V1.08123H59.0741C60.6154 1.08123 61.9403 1.34297 63.0487 1.86646C64.1571 2.3719 65.0058 3.112 65.5946 4.08677C66.2008 5.04349 66.5038 6.2078 66.5038 7.57969C66.5038 8.91549 66.2008 10.0708 65.5946 11.0455C65.0058 12.0023 64.1571 12.7424 63.0487 13.2658C61.9403 13.7713 60.6154 14.024 59.0741 14.024H53.3329L54.1901 13.1034V20.0351H52.2678ZM64.6854 20.0351L60.0093 13.1575H62.0875L66.7896 20.0351H64.6854ZM54.1901 13.2658L53.3329 12.3182H59.0221C60.8406 12.3182 62.2174 11.903 63.1526 11.0726C64.1052 10.2423 64.5812 9.07795 64.5812 7.57969C64.5812 6.06339 64.1052 4.89005 63.1526 4.05969C62.2174 3.22933 60.8406 2.81415 59.0221 2.81415H53.3329L54.1901 1.86646V13.2658ZM72.7037 15.3237L72.6258 12.8868L83.6405 1.08123H85.8487L77.8214 9.85415L76.7303 11.0726L72.7037 15.3237ZM71.0411 20.0351V1.08123H72.9635V20.0351H71.0411ZM84.1081 20.0351L76.2627 10.6123L77.5616 9.15016L86.3942 20.0351H84.1081ZM93.3807 20.1163C92.5321 20.1163 91.6922 19.999 90.8608 19.7643C90.0469 19.5296 89.3195 19.2137 88.6787 18.8166C88.0379 18.4195 87.553 17.9682 87.2239 17.4628L87.6395 17.1108C87.9686 17.5801 88.4362 18.0043 89.0424 18.3834C89.6485 18.7625 90.3326 19.0603 91.0947 19.2769C91.8567 19.4935 92.6274 19.6018 93.4064 19.6018C94.6364 19.6018 95.7274 19.4213 96.68 19.0603C97.6325 18.6812 98.3772 18.1307 98.9141 17.4086C99.451 16.6866 99.7194 15.8111 99.7194 14.7822C99.7194 14.0421 99.5376 13.4464 99.1739 12.9951C98.8275 12.5257 98.3599 12.1467 97.7711 11.8578C97.1995 11.569 96.5674 11.3253 95.8746 11.1268C95.1819 10.9282 94.4891 10.7206 93.7964 10.504C93.1036 10.2693 92.4628 9.99856 91.874 9.69169C91.3025 9.36677 90.8349 8.94256 90.4712 8.41908C90.1248 7.89559 89.9516 7.22769 89.9516 6.41539C89.9516 5.24205 90.246 4.25826 90.8349 3.464C91.4237 2.65169 92.2204 2.03795 93.2246 1.62277C94.2294 1.20759 95.3637 1 96.628 1C97.6152 1 98.5764 1.14441 99.5116 1.43323C100.447 1.72205 101.235 2.13723 101.876 2.67877L101.538 3.13908C100.897 2.61559 100.152 2.21846 99.3038 1.94769C98.4725 1.65887 97.5806 1.51446 96.628 1.51446C95.433 1.51446 94.3679 1.704 93.4327 2.08308C92.4975 2.46215 91.7614 3.01272 91.2245 3.73477C90.705 4.45682 90.4452 5.33231 90.4452 6.36123C90.4452 7.10133 90.6184 7.70605 90.9648 8.17538C91.3285 8.64472 91.7961 9.03282 92.3676 9.33969C92.9564 9.62851 93.5972 9.88123 94.29 10.0978C95 10.2964 95.7015 10.504 96.3942 10.7206C97.087 10.9372 97.7191 11.208 98.2906 11.5329C98.8795 11.8578 99.3471 12.273 99.6935 12.7785C100.057 13.2839 100.239 13.9428 100.239 14.7551C100.239 15.9465 99.9273 16.9393 99.3038 17.7335C98.6976 18.5278 97.875 19.1235 96.8358 19.5206C95.814 19.9177 94.6623 20.1163 93.3807 20.1163ZM106.541 10.152H116.698L116.594 10.6665H106.437L106.541 10.152ZM104.878 19.5206H116.465L116.361 20.0351H104.255L107.892 1.08123H119.608L119.504 1.59569H108.307L104.878 19.5206ZM121.607 20.0351L125.244 1.08123H125.686L135.714 19.4394L135.506 19.3582L139.013 1.08123H139.532L135.895 20.0351H135.454L125.426 1.67692L125.634 1.75815L122.127 20.0351H121.607ZM147.544 20.1163C146.696 20.1163 145.856 19.999 145.024 19.7643C144.21 19.5296 143.483 19.2137 142.842 18.8166C142.201 18.4195 141.716 17.9682 141.387 17.4628L141.803 17.1108C142.132 17.5801 142.6 18.0043 143.206 18.3834C143.812 18.7625 144.496 19.0603 145.258 19.2769C146.02 19.4935 146.791 19.6018 147.57 19.6018C148.8 19.6018 149.891 19.4213 150.843 19.0603C151.796 18.6812 152.541 18.1307 153.078 17.4086C153.615 16.6866 153.883 15.8111 153.883 14.7822C153.883 14.0421 153.701 13.4464 153.337 12.9951C152.991 12.5257 152.523 12.1467 151.935 11.8578C151.363 11.569 150.731 11.3253 150.038 11.1268C149.345 10.9282 148.653 10.7206 147.96 10.504C147.267 10.2693 146.626 9.99856 146.038 9.69169C145.466 9.36677 144.998 8.94256 144.635 8.41908C144.288 7.89559 144.115 7.22769 144.115 6.41539C144.115 5.24205 144.41 4.25826 144.998 3.464C145.587 2.65169 146.384 2.03795 147.388 1.62277C148.393 1.20759 149.527 1 150.792 1C151.779 1 152.74 1.14441 153.675 1.43323C154.61 1.72205 155.398 2.13723 156.039 2.67877L155.701 3.13908C155.061 2.61559 154.316 2.21846 153.467 1.94769C152.636 1.65887 151.744 1.51446 150.792 1.51446C149.597 1.51446 148.531 1.704 147.596 2.08308C146.661 2.46215 145.925 3.01272 145.388 3.73477C144.868 4.45682 144.609 5.33231 144.609 6.36123C144.609 7.10133 144.782 7.70605 145.128 8.17538C145.492 8.64472 145.96 9.03282 146.531 9.33969C147.12 9.62851 147.761 9.88123 148.454 10.0978C149.164 10.2964 149.865 10.504 150.558 10.7206C151.251 10.9372 151.883 11.208 152.454 11.5329C153.043 11.8578 153.511 12.273 153.857 12.7785C154.221 13.2839 154.402 13.9428 154.402 14.7551C154.402 15.9465 154.091 16.9393 153.467 17.7335C152.861 18.5278 152.038 19.1235 150.999 19.5206C149.978 19.9177 148.826 20.1163 147.544 20.1163ZM160.704 10.152H170.862L170.758 10.6665H160.6L160.704 10.152ZM159.042 19.5206H170.628L170.524 20.0351H158.418L162.055 1.08123H173.771L173.668 1.59569H162.471L159.042 19.5206Z" fill="#253C4F"/>
<path d="M7.13086 20.0351L1 1.08123H2.97435L8.71553 18.9249H7.72836L13.6514 1.08123H15.4179L21.263 18.9249H20.3278L26.1209 1.08123H27.9654L21.8345 20.0351H19.8082L14.2229 3.112H14.7425L9.13118 20.0351H7.13086ZM52.2678 20.0351V1.08123H59.0741C60.6154 1.08123 61.9403 1.34297 63.0487 1.86646C64.1571 2.3719 65.0058 3.112 65.5946 4.08677C66.2008 5.04349 66.5038 6.2078 66.5038 7.57969C66.5038 8.91549 66.2008 10.0708 65.5946 11.0455C65.0058 12.0023 64.1571 12.7424 63.0487 13.2658C61.9403 13.7713 60.6154 14.024 59.0741 14.024H53.3329L54.1901 13.1034V20.0351H52.2678ZM64.6854 20.0351L60.0093 13.1575H62.0875L66.7896 20.0351H64.6854ZM54.1901 13.2658L53.3329 12.3182H59.0221C60.8406 12.3182 62.2174 11.903 63.1526 11.0726C64.1052 10.2423 64.5812 9.07795 64.5812 7.57969C64.5812 6.06339 64.1052 4.89005 63.1526 4.05969C62.2174 3.22933 60.8406 2.81415 59.0221 2.81415H53.3329L54.1901 1.86646V13.2658ZM72.7037 15.3237L72.6258 12.8868L83.6405 1.08123H85.8487L77.8214 9.85415L76.7303 11.0726L72.7037 15.3237ZM71.0411 20.0351V1.08123H72.9635V20.0351H71.0411ZM84.1081 20.0351L76.2627 10.6123L77.5616 9.15016L86.3942 20.0351H84.1081ZM93.3807 20.1163C92.5321 20.1163 91.6922 19.999 90.8608 19.7643C90.0469 19.5296 89.3195 19.2137 88.6787 18.8166C88.0379 18.4195 87.553 17.9682 87.2239 17.4628L87.6395 17.1108C87.9686 17.5801 88.4362 18.0043 89.0424 18.3834C89.6485 18.7625 90.3326 19.0603 91.0947 19.2769C91.8567 19.4935 92.6274 19.6018 93.4064 19.6018C94.6364 19.6018 95.7274 19.4213 96.68 19.0603C97.6325 18.6812 98.3772 18.1307 98.9141 17.4086C99.451 16.6866 99.7194 15.8111 99.7194 14.7822C99.7194 14.0421 99.5376 13.4464 99.1739 12.9951C98.8275 12.5257 98.3599 12.1467 97.7711 11.8578C97.1995 11.569 96.5674 11.3253 95.8746 11.1268C95.1819 10.9282 94.4891 10.7206 93.7964 10.504C93.1036 10.2693 92.4628 9.99856 91.874 9.69169C91.3025 9.36677 90.8349 8.94256 90.4712 8.41908C90.1248 7.89559 89.9516 7.22769 89.9516 6.41539C89.9516 5.24205 90.246 4.25826 90.8349 3.464C91.4237 2.65169 92.2204 2.03795 93.2246 1.62277C94.2294 1.20759 95.3637 1 96.628 1C97.6152 1 98.5764 1.14441 99.5116 1.43323C100.447 1.72205 101.235 2.13723 101.876 2.67877L101.538 3.13908C100.897 2.61559 100.152 2.21846 99.3038 1.94769C98.4725 1.65887 97.5806 1.51446 96.628 1.51446C95.433 1.51446 94.3679 1.704 93.4327 2.08308C92.4975 2.46215 91.7614 3.01272 91.2245 3.73477C90.705 4.45682 90.4452 5.33231 90.4452 6.36123C90.4452 7.10133 90.6184 7.70605 90.9648 8.17538C91.3285 8.64472 91.7961 9.03282 92.3676 9.33969C92.9564 9.62851 93.5972 9.88123 94.29 10.0978C95 10.2964 95.7015 10.504 96.3942 10.7206C97.087 10.9372 97.7191 11.208 98.2906 11.5329C98.8795 11.8578 99.3471 12.273 99.6935 12.7785C100.057 13.2839 100.239 13.9428 100.239 14.7551C100.239 15.9465 99.9273 16.9393 99.3038 17.7335C98.6976 18.5278 97.875 19.1235 96.8358 19.5206C95.814 19.9177 94.6623 20.1163 93.3807 20.1163ZM106.541 10.152H116.698L116.594 10.6665H106.437L106.541 10.152ZM104.878 19.5206H116.465L116.361 20.0351H104.255L107.892 1.08123H119.608L119.504 1.59569H108.307L104.878 19.5206ZM121.607 20.0351L125.244 1.08123H125.686L135.714 19.4394L135.506 19.3582L139.013 1.08123H139.532L135.895 20.0351H135.454L125.426 1.67692L125.634 1.75815L122.127 20.0351H121.607ZM147.544 20.1163C146.696 20.1163 145.856 19.999 145.024 19.7643C144.21 19.5296 143.483 19.2137 142.842 18.8166C142.201 18.4195 141.716 17.9682 141.387 17.4628L141.803 17.1108C142.132 17.5801 142.6 18.0043 143.206 18.3834C143.812 18.7625 144.496 19.0603 145.258 19.2769C146.02 19.4935 146.791 19.6018 147.57 19.6018C148.8 19.6018 149.891 19.4213 150.843 19.0603C151.796 18.6812 152.541 18.1307 153.078 17.4086C153.615 16.6866 153.883 15.8111 153.883 14.7822C153.883 14.0421 153.701 13.4464 153.337 12.9951C152.991 12.5257 152.523 12.1467 151.935 11.8578C151.363 11.569 150.731 11.3253 150.038 11.1268C149.345 10.9282 148.653 10.7206 147.96 10.504C147.267 10.2693 146.626 9.99856 146.038 9.69169C145.466 9.36677 144.998 8.94256 144.635 8.41908C144.288 7.89559 144.115 7.22769 144.115 6.41539C144.115 5.24205 144.41 4.25826 144.998 3.464C145.587 2.65169 146.384 2.03795 147.388 1.62277C148.393 1.20759 149.527 1 150.792 1C151.779 1 152.74 1.14441 153.675 1.43323C154.61 1.72205 155.398 2.13723 156.039 2.67877L155.701 3.13908C155.061 2.61559 154.316 2.21846 153.467 1.94769C152.636 1.65887 151.744 1.51446 150.792 1.51446C149.597 1.51446 148.531 1.704 147.596 2.08308C146.661 2.46215 145.925 3.01272 145.388 3.73477C144.868 4.45682 144.609 5.33231 144.609 6.36123C144.609 7.10133 144.782 7.70605 145.128 8.17538C145.492 8.64472 145.96 9.03282 146.531 9.33969C147.12 9.62851 147.761 9.88123 148.454 10.0978C149.164 10.2964 149.865 10.504 150.558 10.7206C151.251 10.9372 151.883 11.208 152.454 11.5329C153.043 11.8578 153.511 12.273 153.857 12.7785C154.221 13.2839 154.402 13.9428 154.402 14.7551C154.402 15.9465 154.091 16.9393 153.467 17.7335C152.861 18.5278 152.038 19.1235 150.999 19.5206C149.978 19.9177 148.826 20.1163 147.544 20.1163ZM160.704 10.152H170.862L170.758 10.6665H160.6L160.704 10.152ZM159.042 19.5206H170.628L170.524 20.0351H158.418L162.055 1.08123H173.771L173.668 1.59569H162.471L159.042 19.5206Z" stroke="#253C4F" mask="url(#path-2-outside-1_2127_1217)"/>
</svg>
