<svg width="1040" height="1080" viewBox="0 0 1040 1080" fill="none" xmlns="http://www.w3.org/2000/svg">
<rect width="1040" height="1101" fill="#3B465B"/>
<rect width="1040" height="1101" fill="#F2F3F4"/>
<path d="M123.112 680.856L105.08 720H100.712L96.792 686.736L80.832 720L76.52 720.056L72.6 680.856H76.856L79.712 714.96L95.784 680.856H100.208L103.848 715.072L118.856 680.856H123.112ZM140.868 688.976C143.444 688.976 145.647 689.48 147.476 690.488C149.306 691.459 150.687 692.803 151.62 694.52C152.591 696.237 153.076 698.197 153.076 700.4C153.076 701.408 153.002 702.304 152.852 703.088C152.628 704.208 152.404 705.216 152.18 706.112H126.812C126.7 706.821 126.644 707.493 126.644 708.128C126.644 711.003 127.503 713.224 129.22 714.792C130.975 716.36 133.196 717.144 135.884 717.144C138.46 717.144 140.719 716.528 142.66 715.296C144.602 714.064 146.02 712.403 146.916 710.312H151.116C149.847 713.299 147.812 715.744 145.012 717.648C142.25 719.515 139.02 720.448 135.324 720.448C131.516 720.448 128.455 719.365 126.14 717.2C123.863 714.997 122.724 712.011 122.724 708.24C122.724 707.12 122.836 705.944 123.06 704.712C123.62 701.539 124.74 698.757 126.42 696.368C128.138 693.979 130.247 692.149 132.748 690.88C135.25 689.611 137.956 688.976 140.868 688.976ZM148.82 703.2C149.007 702.155 149.1 701.277 149.1 700.568C149.1 697.917 148.26 695.883 146.58 694.464C144.9 693.045 142.754 692.336 140.14 692.336C138.236 692.336 136.407 692.747 134.652 693.568C132.898 694.389 131.367 695.621 130.06 697.264C128.754 698.907 127.858 700.885 127.372 703.2H148.82ZM168.256 678.56L160.92 720H157L164.336 678.56H168.256ZM170.693 704.712C171.253 701.539 172.373 698.776 174.053 696.424C175.771 694.035 177.861 692.205 180.325 690.936C182.789 689.629 185.459 688.976 188.333 688.976C192.104 688.976 195.035 689.909 197.125 691.776C199.253 693.643 200.392 696.181 200.541 699.392H196.341C196.229 697.189 195.408 695.472 193.877 694.24C192.384 692.971 190.349 692.336 187.773 692.336C184.6 692.336 181.8 693.419 179.373 695.584C176.984 697.712 175.435 700.755 174.725 704.712C174.539 705.645 174.445 706.709 174.445 707.904C174.445 710.891 175.248 713.187 176.853 714.792C178.496 716.36 180.661 717.144 183.349 717.144C185.963 717.144 188.24 716.528 190.181 715.296C192.123 714.027 193.56 712.272 194.493 710.032H198.693C197.424 713.168 195.389 715.688 192.589 717.592C189.789 719.496 186.523 720.448 182.789 720.448C179.019 720.448 175.995 719.365 173.717 717.2C171.477 715.035 170.357 712.067 170.357 708.296C170.357 707.139 170.469 705.944 170.693 704.712ZM217.581 720.448C215.042 720.448 212.802 719.944 210.861 718.936C208.92 717.891 207.408 716.435 206.325 714.568C205.28 712.664 204.757 710.443 204.757 707.904C204.757 704.469 205.541 701.315 207.109 698.44C208.677 695.528 210.861 693.232 213.661 691.552C216.461 689.835 219.578 688.976 223.013 688.976C225.552 688.976 227.792 689.499 229.733 690.544C231.674 691.552 233.186 693.008 234.269 694.912C235.352 696.779 235.893 698.981 235.893 701.52C235.893 704.992 235.09 708.165 233.485 711.04C231.88 713.915 229.677 716.211 226.877 717.928C224.114 719.608 221.016 720.448 217.581 720.448ZM218.029 717.144C220.68 717.144 223.05 716.435 225.141 715.016C227.269 713.597 228.912 711.712 230.069 709.36C231.264 707.008 231.861 704.469 231.861 701.744C231.861 698.683 230.965 696.349 229.173 694.744C227.418 693.139 225.178 692.336 222.453 692.336C219.802 692.336 217.432 693.045 215.341 694.464C213.288 695.883 211.682 697.768 210.525 700.12C209.368 702.472 208.789 705.011 208.789 707.736C208.789 710.76 209.666 713.093 211.421 714.736C213.176 716.341 215.378 717.144 218.029 717.144ZM282.015 688.864C285.076 688.864 287.521 689.704 289.351 691.384C291.217 693.064 292.151 695.528 292.151 698.776C292.151 699.784 292.039 700.885 291.815 702.08L288.623 720H284.759L287.895 702.528C288.081 701.408 288.175 700.475 288.175 699.728C288.175 697.301 287.521 695.453 286.215 694.184C284.908 692.915 283.06 692.28 280.671 692.28C278.02 692.28 275.687 693.12 273.671 694.8C271.692 696.48 270.311 698.907 269.527 702.08L266.279 720H262.415L265.551 702.528C265.737 701.408 265.831 700.475 265.831 699.728C265.831 697.301 265.177 695.453 263.871 694.184C262.564 692.915 260.735 692.28 258.383 692.28C255.545 692.28 253.1 693.213 251.047 695.08C248.993 696.909 247.631 699.56 246.959 703.032L243.991 720H240.071L245.447 689.424H249.367L248.415 694.744C249.684 692.84 251.308 691.384 253.287 690.376C255.303 689.368 257.431 688.864 259.671 688.864C262.321 688.864 264.524 689.499 266.279 690.768C268.033 692.037 269.135 693.904 269.583 696.368C270.815 693.941 272.551 692.093 274.791 690.824C277.031 689.517 279.439 688.864 282.015 688.864ZM316.032 688.976C318.608 688.976 320.811 689.48 322.64 690.488C324.47 691.459 325.851 692.803 326.784 694.52C327.755 696.237 328.24 698.197 328.24 700.4C328.24 701.408 328.166 702.304 328.016 703.088C327.792 704.208 327.568 705.216 327.344 706.112H301.976C301.864 706.821 301.808 707.493 301.808 708.128C301.808 711.003 302.667 713.224 304.384 714.792C306.139 716.36 308.36 717.144 311.048 717.144C313.624 717.144 315.883 716.528 317.824 715.296C319.766 714.064 321.184 712.403 322.08 710.312H326.28C325.011 713.299 322.976 715.744 320.176 717.648C317.414 719.515 314.184 720.448 310.488 720.448C306.68 720.448 303.619 719.365 301.304 717.2C299.027 714.997 297.888 712.011 297.888 708.24C297.888 707.12 298 705.944 298.224 704.712C298.784 701.539 299.904 698.757 301.584 696.368C303.302 693.979 305.411 692.149 307.912 690.88C310.414 689.611 313.12 688.976 316.032 688.976ZM323.984 703.2C324.171 702.155 324.264 701.277 324.264 700.568C324.264 697.917 323.424 695.883 321.744 694.464C320.064 693.045 317.918 692.336 315.304 692.336C313.4 692.336 311.571 692.747 309.816 693.568C308.062 694.389 306.531 695.621 305.224 697.264C303.918 698.907 303.022 700.885 302.536 703.2H323.984ZM332.78 720.28C332.071 720.28 331.492 720.056 331.044 719.608C330.596 719.16 330.372 718.581 330.372 717.872C330.372 716.976 330.708 716.192 331.38 715.52C332.09 714.848 332.892 714.512 333.788 714.512C334.498 714.512 335.076 714.736 335.524 715.184C335.972 715.595 336.196 716.155 336.196 716.864C336.196 717.76 335.842 718.563 335.132 719.272C334.46 719.944 333.676 720.28 332.78 720.28ZM81.168 787.392C78.816 787.392 76.744 787 74.952 786.216C73.1973 785.432 71.8347 784.331 70.864 782.912C69.8933 781.493 69.408 779.869 69.408 778.04C69.408 777.555 69.4267 777.181 69.464 776.92H73.328C73.2533 778.115 73.4587 779.272 73.944 780.392C74.4667 781.475 75.344 782.389 76.576 783.136C77.8453 783.845 79.4693 784.2 81.448 784.2C84.2107 784.2 86.4133 783.509 88.056 782.128C89.6987 780.747 90.52 778.88 90.52 776.528C90.52 775.109 90.128 773.933 89.344 773C88.5973 772.029 87.664 771.245 86.544 770.648C85.424 770.013 83.8933 769.304 81.952 768.52C79.6747 767.624 77.864 766.803 76.52 766.056C75.176 765.272 74.056 764.208 73.16 762.864C72.3013 761.52 71.9467 759.803 72.096 757.712C72.1707 755.696 72.768 753.923 73.888 752.392C75.0453 750.824 76.5947 749.611 78.536 748.752C80.5147 747.856 82.7547 747.408 85.256 747.408C87.72 747.408 89.8293 747.837 91.584 748.696C93.376 749.517 94.7013 750.656 95.56 752.112C96.456 753.568 96.848 755.173 96.736 756.928H92.648C92.7227 755.92 92.48 754.931 91.92 753.96C91.3973 752.989 90.5387 752.205 89.344 751.608C88.1867 750.973 86.7493 750.656 85.032 750.656C82.3813 750.656 80.216 751.309 78.536 752.616C76.856 753.885 76.016 755.621 76.016 757.824C76.016 759.131 76.3893 760.232 77.136 761.128C77.8827 762.024 78.7973 762.771 79.88 763.368C80.9627 763.965 82.456 764.656 84.36 765.44C86.5627 766.336 88.336 767.176 89.68 767.96C91.0613 768.744 92.2187 769.789 93.152 771.096C94.1227 772.403 94.608 774.045 94.608 776.024C94.608 776.509 94.5893 776.883 94.552 777.144C94.4027 779.048 93.768 780.784 92.648 782.352C91.528 783.92 89.9787 785.152 88 786.048C86.0587 786.944 83.7813 787.392 81.168 787.392ZM106.895 778.712C106.783 779.384 106.727 779.963 106.727 780.448C106.727 781.643 107.044 782.483 107.679 782.968C108.351 783.416 109.433 783.64 110.927 783.64H114.511L113.895 787H109.695C107.38 787 105.644 786.552 104.487 785.656C103.329 784.76 102.751 783.285 102.751 781.232C102.751 780.411 102.825 779.571 102.975 778.712L106.335 759.728H102.079L102.695 756.424H106.951L108.295 748.752H112.215L110.871 756.424H119.327L118.711 759.728H110.255L106.895 778.712ZM121.256 771.656C121.816 768.52 122.936 765.776 124.616 763.424C126.296 761.035 128.349 759.205 130.776 757.936C133.24 756.629 135.872 755.976 138.672 755.976C141.584 755.976 143.973 756.648 145.84 757.992C147.706 759.336 148.92 761.053 149.48 763.144L150.656 756.424H154.576L149.2 787H145.28L146.456 780.224C145.186 782.315 143.357 784.051 140.968 785.432C138.616 786.776 135.984 787.448 133.072 787.448C130.645 787.448 128.517 786.944 126.688 785.936C124.858 784.928 123.44 783.509 122.432 781.68C121.424 779.813 120.92 777.629 120.92 775.128C120.92 774.045 121.032 772.888 121.256 771.656ZM147.968 771.712C148.154 770.667 148.248 769.733 148.248 768.912C148.248 766 147.37 763.685 145.616 761.968C143.861 760.251 141.584 759.392 138.784 759.392C136.618 759.392 134.584 759.877 132.68 760.848C130.813 761.819 129.226 763.237 127.92 765.104C126.613 766.933 125.736 769.117 125.288 771.656C125.101 772.776 125.008 773.728 125.008 774.512C125.008 777.461 125.866 779.795 127.584 781.512C129.338 783.192 131.616 784.032 134.416 784.032C136.506 784.032 138.504 783.528 140.408 782.52C142.349 781.512 143.973 780.075 145.28 778.208C146.624 776.341 147.52 774.176 147.968 771.712ZM166.381 762.528C167.613 760.4 169.218 758.757 171.197 757.6C173.175 756.443 175.471 755.864 178.085 755.864L177.357 759.952H176.237C173.549 759.952 171.234 760.643 169.293 762.024C167.351 763.405 166.007 765.683 165.261 768.856L162.069 787H158.149L163.525 756.424H167.445L166.381 762.528ZM184.934 778.712C184.822 779.384 184.766 779.963 184.766 780.448C184.766 781.643 185.083 782.483 185.718 782.968C186.39 783.416 187.472 783.64 188.966 783.64H192.55L191.934 787H187.734C185.419 787 183.683 786.552 182.526 785.656C181.368 784.76 180.79 783.285 180.79 781.232C180.79 780.411 180.864 779.571 181.014 778.712L184.374 759.728H180.118L180.734 756.424H184.99L186.334 748.752H190.254L188.91 756.424H197.366L196.75 759.728H188.294L184.934 778.712ZM221.018 756.424L226.786 782.352L241.402 756.424H245.49L219.45 801.392H215.306L223.818 786.776L216.65 756.424H221.018ZM258.87 787.448C256.331 787.448 254.091 786.944 252.15 785.936C250.209 784.891 248.697 783.435 247.614 781.568C246.569 779.664 246.046 777.443 246.046 774.904C246.046 771.469 246.83 768.315 248.398 765.44C249.966 762.528 252.15 760.232 254.95 758.552C257.75 756.835 260.867 755.976 264.302 755.976C266.841 755.976 269.081 756.499 271.022 757.544C272.963 758.552 274.475 760.008 275.558 761.912C276.641 763.779 277.182 765.981 277.182 768.52C277.182 771.992 276.379 775.165 274.774 778.04C273.169 780.915 270.966 783.211 268.166 784.928C265.403 786.608 262.305 787.448 258.87 787.448ZM259.318 784.144C261.969 784.144 264.339 783.435 266.43 782.016C268.558 780.597 270.201 778.712 271.358 776.36C272.553 774.008 273.15 771.469 273.15 768.744C273.15 765.683 272.254 763.349 270.462 761.744C268.707 760.139 266.467 759.336 263.742 759.336C261.091 759.336 258.721 760.045 256.63 761.464C254.577 762.883 252.971 764.768 251.814 767.12C250.657 769.472 250.078 772.011 250.078 774.736C250.078 777.76 250.955 780.093 252.71 781.736C254.465 783.341 256.667 784.144 259.318 784.144ZM313.224 756.424L307.848 787H303.928L304.88 781.624C303.61 783.528 301.968 784.984 299.952 785.992C297.936 787 295.77 787.504 293.456 787.504C290.32 787.504 287.8 786.664 285.896 784.984C283.992 783.267 283.04 780.784 283.04 777.536C283.04 776.341 283.133 775.259 283.32 774.288L286.456 756.424H290.32L287.24 773.84C287.09 774.699 287.016 775.595 287.016 776.528C287.016 778.992 287.688 780.877 289.032 782.184C290.413 783.453 292.317 784.088 294.744 784.088C297.581 784.088 300.026 783.229 302.08 781.512C304.133 779.757 305.514 777.2 306.224 773.84L309.304 756.424H313.224ZM325.029 762.528C326.261 760.4 327.867 758.757 329.845 757.6C331.824 756.443 334.12 755.864 336.733 755.864L336.005 759.952H334.885C332.197 759.952 329.883 760.643 327.941 762.024C326 763.405 324.656 765.683 323.909 768.856L320.717 787H316.797L322.173 756.424H326.093L325.029 762.528ZM362.226 750.656C361.517 750.656 360.938 750.451 360.49 750.04C360.079 749.592 359.874 749.013 359.874 748.304C359.874 747.333 360.21 746.531 360.882 745.896C361.554 745.224 362.338 744.888 363.234 744.888C363.943 744.888 364.522 745.112 364.97 745.56C365.418 745.971 365.642 746.531 365.642 747.24C365.642 748.173 365.287 748.976 364.578 749.648C363.906 750.32 363.122 750.656 362.226 750.656ZM356.514 794.224C356.103 796.688 355.17 798.499 353.714 799.656C352.258 800.851 350.279 801.448 347.778 801.448H345.09L345.706 798.088H347.778C349.234 798.088 350.335 797.771 351.082 797.136C351.829 796.539 352.333 795.512 352.594 794.056L359.258 756.424H363.178L356.514 794.224ZM380.167 787.448C377.628 787.448 375.388 786.944 373.447 785.936C371.506 784.891 369.994 783.435 368.911 781.568C367.866 779.664 367.343 777.443 367.343 774.904C367.343 771.469 368.127 768.315 369.695 765.44C371.263 762.528 373.447 760.232 376.247 758.552C379.047 756.835 382.164 755.976 385.599 755.976C388.138 755.976 390.378 756.499 392.319 757.544C394.26 758.552 395.772 760.008 396.855 761.912C397.938 763.779 398.479 765.981 398.479 768.52C398.479 771.992 397.676 775.165 396.071 778.04C394.466 780.915 392.263 783.211 389.463 784.928C386.7 786.608 383.602 787.448 380.167 787.448ZM380.615 784.144C383.266 784.144 385.636 783.435 387.727 782.016C389.855 780.597 391.498 778.712 392.655 776.36C393.85 774.008 394.447 771.469 394.447 768.744C394.447 765.683 393.551 763.349 391.759 761.744C390.004 760.139 387.764 759.336 385.039 759.336C382.388 759.336 380.018 760.045 377.927 761.464C375.874 762.883 374.268 764.768 373.111 767.12C371.954 769.472 371.375 772.011 371.375 774.736C371.375 777.76 372.252 780.093 374.007 781.736C375.762 783.341 377.964 784.144 380.615 784.144ZM434.521 756.424L429.145 787H425.225L426.177 781.624C424.907 783.528 423.265 784.984 421.249 785.992C419.233 787 417.067 787.504 414.753 787.504C411.617 787.504 409.097 786.664 407.193 784.984C405.289 783.267 404.337 780.784 404.337 777.536C404.337 776.341 404.43 775.259 404.617 774.288L407.753 756.424H411.617L408.537 773.84C408.387 774.699 408.313 775.595 408.313 776.528C408.313 778.992 408.985 780.877 410.329 782.184C411.71 783.453 413.614 784.088 416.041 784.088C418.878 784.088 421.323 783.229 423.377 781.512C425.43 779.757 426.811 777.2 427.521 773.84L430.601 756.424H434.521ZM446.326 762.528C447.558 760.4 449.163 758.757 451.142 757.6C453.121 756.443 455.417 755.864 458.03 755.864L457.302 759.952H456.182C453.494 759.952 451.179 760.643 449.238 762.024C447.297 763.405 445.953 765.683 445.206 768.856L442.014 787H438.094L443.47 756.424H447.39L446.326 762.528ZM478.263 755.864C481.399 755.864 483.9 756.723 485.767 758.44C487.671 760.12 488.623 762.584 488.623 765.832C488.623 767.027 488.53 768.109 488.343 769.08L485.151 787H481.287L484.367 769.528C484.516 768.669 484.591 767.755 484.591 766.784C484.591 764.32 483.919 762.453 482.575 761.184C481.231 759.915 479.346 759.28 476.919 759.28C473.97 759.28 471.45 760.213 469.359 762.08C467.268 763.947 465.906 766.691 465.271 770.312V770.144L462.303 787H458.383L463.759 756.424H467.679L466.727 761.688C468.034 759.821 469.695 758.384 471.711 757.376C473.727 756.368 475.911 755.864 478.263 755.864ZM512.525 755.976C515.101 755.976 517.303 756.48 519.133 757.488C520.962 758.459 522.343 759.803 523.277 761.52C524.247 763.237 524.733 765.197 524.733 767.4C524.733 768.408 524.658 769.304 524.509 770.088C524.285 771.208 524.061 772.216 523.837 773.112H498.469C498.357 773.821 498.301 774.493 498.301 775.128C498.301 778.003 499.159 780.224 500.877 781.792C502.631 783.36 504.853 784.144 507.541 784.144C510.117 784.144 512.375 783.528 514.317 782.296C516.258 781.064 517.677 779.403 518.573 777.312H522.773C521.503 780.299 519.469 782.744 516.669 784.648C513.906 786.515 510.677 787.448 506.981 787.448C503.173 787.448 500.111 786.365 497.797 784.2C495.519 781.997 494.381 779.011 494.381 775.24C494.381 774.12 494.493 772.944 494.717 771.712C495.277 768.539 496.397 765.757 498.077 763.368C499.794 760.979 501.903 759.149 504.405 757.88C506.906 756.611 509.613 755.976 512.525 755.976ZM520.477 770.2C520.663 769.155 520.757 768.277 520.757 767.568C520.757 764.917 519.917 762.883 518.237 761.464C516.557 760.045 514.41 759.336 511.797 759.336C509.893 759.336 508.063 759.747 506.309 760.568C504.554 761.389 503.023 762.621 501.717 764.264C500.41 765.907 499.514 767.885 499.029 770.2H520.477ZM534.761 756.424L540.529 782.352L555.145 756.424H559.233L533.193 801.392H529.049L537.561 786.776L530.393 756.424H534.761ZM88.56 822.864C91.696 822.864 94.1973 823.723 96.064 825.44C97.968 827.12 98.92 829.584 98.92 832.832C98.92 834.027 98.8267 835.109 98.64 836.08L95.448 854H91.584L94.664 836.528C94.8133 835.669 94.888 834.755 94.888 833.784C94.888 831.32 94.216 829.453 92.872 828.184C91.528 826.915 89.6427 826.28 87.216 826.28C84.2667 826.28 81.7467 827.213 79.656 829.08C77.5653 830.947 76.2027 833.691 75.568 837.312V837.144L72.6 854H68.68L74.056 823.424H77.976L77.024 828.688C78.3307 826.821 79.992 825.384 82.008 824.376C84.024 823.368 86.208 822.864 88.56 822.864ZM117.558 854.448C115.019 854.448 112.779 853.944 110.838 852.936C108.896 851.891 107.384 850.435 106.302 848.568C105.256 846.664 104.734 844.443 104.734 841.904C104.734 838.469 105.518 835.315 107.086 832.44C108.654 829.528 110.838 827.232 113.638 825.552C116.438 823.835 119.555 822.976 122.99 822.976C125.528 822.976 127.768 823.499 129.71 824.544C131.651 825.552 133.163 827.008 134.246 828.912C135.328 830.779 135.87 832.981 135.87 835.52C135.87 838.992 135.067 842.165 133.462 845.04C131.856 847.915 129.654 850.211 126.854 851.928C124.091 853.608 120.992 854.448 117.558 854.448ZM118.006 851.144C120.656 851.144 123.027 850.435 125.118 849.016C127.246 847.597 128.888 845.712 130.046 843.36C131.24 841.008 131.838 838.469 131.838 835.744C131.838 832.683 130.942 830.349 129.15 828.744C127.395 827.139 125.155 826.336 122.43 826.336C119.779 826.336 117.408 827.045 115.318 828.464C113.264 829.883 111.659 831.768 110.502 834.12C109.344 836.472 108.766 839.011 108.766 841.736C108.766 844.76 109.643 847.093 111.398 848.736C113.152 850.341 115.355 851.144 118.006 851.144ZM185.743 823.424L170.791 854H166.871L162.951 828.408L149.903 854H145.983L141.783 823.424H145.815L148.783 849.856L161.943 823.424H165.919L169.671 849.912L181.879 823.424H185.743ZM247.923 823.424L232.971 854H229.051L225.131 828.408L212.083 854H208.163L203.963 823.424H207.995L210.963 849.856L224.123 823.424H228.099L231.851 849.912L244.059 823.424H247.923ZM256.291 817.656C255.582 817.656 255.003 817.451 254.555 817.04C254.107 816.592 253.883 816.013 253.883 815.304C253.883 814.333 254.219 813.531 254.891 812.896C255.563 812.224 256.366 811.888 257.299 811.888C258.008 811.888 258.568 812.093 258.979 812.504C259.427 812.915 259.651 813.456 259.651 814.128C259.651 815.099 259.315 815.939 258.643 816.648C257.971 817.32 257.187 817.656 256.291 817.656ZM257.187 823.424L251.811 854H247.891L253.267 823.424H257.187ZM267.184 845.712C267.072 846.384 267.016 846.963 267.016 847.448C267.016 848.643 267.333 849.483 267.968 849.968C268.64 850.416 269.722 850.64 271.216 850.64H274.8L274.184 854H269.984C267.669 854 265.933 853.552 264.776 852.656C263.618 851.76 263.04 850.285 263.04 848.232C263.04 847.411 263.114 846.571 263.264 845.712L266.624 826.728H262.368L262.984 823.424H267.24L268.584 815.752H272.504L271.16 823.424H279.616L279 826.728H270.544L267.184 845.712ZM300.697 822.864C303.758 822.864 306.222 823.704 308.089 825.384C309.955 827.064 310.889 829.547 310.889 832.832C310.889 834.027 310.795 835.109 310.609 836.08L307.417 854H303.553L306.633 836.528C306.782 835.669 306.857 834.755 306.857 833.784C306.857 831.32 306.185 829.453 304.841 828.184C303.497 826.915 301.611 826.28 299.185 826.28C296.235 826.28 293.715 827.213 291.625 829.08C289.534 830.947 288.171 833.691 287.537 837.312V837.256L284.569 854H280.649L287.985 812.56H291.905L289.049 828.632C290.355 826.765 292.035 825.347 294.089 824.376C296.142 823.368 298.345 822.864 300.697 822.864ZM346.042 854.448C343.503 854.448 341.263 853.944 339.322 852.936C337.381 851.891 335.869 850.435 334.786 848.568C333.741 846.664 333.218 844.443 333.218 841.904C333.218 838.469 334.002 835.315 335.57 832.44C337.138 829.528 339.322 827.232 342.122 825.552C344.922 823.835 348.039 822.976 351.474 822.976C354.013 822.976 356.253 823.499 358.194 824.544C360.135 825.552 361.647 827.008 362.73 828.912C363.813 830.779 364.354 832.981 364.354 835.52C364.354 838.992 363.551 842.165 361.946 845.04C360.341 847.915 358.138 850.211 355.338 851.928C352.575 853.608 349.477 854.448 346.042 854.448ZM346.49 851.144C349.141 851.144 351.511 850.435 353.602 849.016C355.73 847.597 357.373 845.712 358.53 843.36C359.725 841.008 360.322 838.469 360.322 835.744C360.322 832.683 359.426 830.349 357.634 828.744C355.879 827.139 353.639 826.336 350.914 826.336C348.263 826.336 345.893 827.045 343.802 828.464C341.749 829.883 340.143 831.768 338.986 834.12C337.829 836.472 337.25 839.011 337.25 841.736C337.25 844.76 338.127 847.093 339.882 848.736C341.637 850.341 343.839 851.144 346.49 851.144ZM400.396 823.424L395.02 854H391.1L392.052 848.624C390.782 850.528 389.14 851.984 387.124 852.992C385.108 854 382.942 854.504 380.628 854.504C377.492 854.504 374.972 853.664 373.068 851.984C371.164 850.267 370.212 847.784 370.212 844.536C370.212 843.341 370.305 842.259 370.492 841.288L373.628 823.424H377.492L374.412 840.84C374.262 841.699 374.188 842.595 374.188 843.528C374.188 845.992 374.86 847.877 376.204 849.184C377.585 850.453 379.489 851.088 381.916 851.088C384.753 851.088 387.198 850.229 389.252 848.512C391.305 846.757 392.686 844.2 393.396 840.84L396.476 823.424H400.396ZM412.201 829.528C413.433 827.4 415.038 825.757 417.017 824.6C418.996 823.443 421.292 822.864 423.905 822.864L423.177 826.952H422.057C419.369 826.952 417.054 827.643 415.113 829.024C413.172 830.405 411.828 832.683 411.081 835.856L407.889 854H403.969L409.345 823.424H413.265L412.201 829.528ZM110.624 889.864C113.685 889.864 116.131 890.704 117.96 892.384C119.827 894.064 120.76 896.528 120.76 899.776C120.76 900.784 120.648 901.885 120.424 903.08L117.232 921H113.368L116.504 903.528C116.691 902.408 116.784 901.475 116.784 900.728C116.784 898.301 116.131 896.453 114.824 895.184C113.517 893.915 111.669 893.28 109.28 893.28C106.629 893.28 104.296 894.12 102.28 895.8C100.301 897.48 98.92 899.907 98.136 903.08L94.888 921H91.024L94.16 903.528C94.3467 902.408 94.44 901.475 94.44 900.728C94.44 898.301 93.7867 896.453 92.48 895.184C91.1733 893.915 89.344 893.28 86.992 893.28C84.1547 893.28 81.7093 894.213 79.656 896.08C77.6027 897.909 76.24 900.56 75.568 904.032L72.6 921H68.68L74.056 890.424H77.976L77.024 895.744C78.2933 893.84 79.9173 892.384 81.896 891.376C83.912 890.368 86.04 889.864 88.28 889.864C90.9307 889.864 93.1333 890.499 94.888 891.768C96.6427 893.037 97.744 894.904 98.192 897.368C99.424 894.941 101.16 893.093 103.4 891.824C105.64 890.517 108.048 889.864 110.624 889.864ZM126.834 905.656C127.394 902.52 128.514 899.776 130.194 897.424C131.874 895.035 133.927 893.205 136.354 891.936C138.818 890.629 141.45 889.976 144.25 889.976C147.162 889.976 149.551 890.648 151.418 891.992C153.284 893.336 154.498 895.053 155.058 897.144L156.234 890.424H160.154L154.778 921H150.858L152.034 914.224C150.764 916.315 148.935 918.051 146.546 919.432C144.194 920.776 141.562 921.448 138.65 921.448C136.223 921.448 134.095 920.944 132.266 919.936C130.436 918.928 129.018 917.509 128.01 915.68C127.002 913.813 126.498 911.629 126.498 909.128C126.498 908.045 126.61 906.888 126.834 905.656ZM153.546 905.712C153.732 904.667 153.826 903.733 153.826 902.912C153.826 900 152.948 897.685 151.194 895.968C149.439 894.251 147.162 893.392 144.362 893.392C142.196 893.392 140.162 893.877 138.258 894.848C136.391 895.819 134.804 897.237 133.498 899.104C132.191 900.933 131.314 903.117 130.866 905.656C130.679 906.776 130.586 907.728 130.586 908.512C130.586 911.461 131.444 913.795 133.162 915.512C134.916 917.192 137.194 918.032 139.994 918.032C142.084 918.032 144.082 917.528 145.986 916.52C147.927 915.512 149.551 914.075 150.858 912.208C152.202 910.341 153.098 908.176 153.546 905.712ZM183.607 889.864C186.743 889.864 189.244 890.723 191.111 892.44C193.015 894.12 193.967 896.584 193.967 899.832C193.967 901.027 193.874 902.109 193.687 903.08L190.495 921H186.631L189.711 903.528C189.86 902.669 189.935 901.755 189.935 900.784C189.935 898.32 189.263 896.453 187.919 895.184C186.575 893.915 184.69 893.28 182.263 893.28C179.314 893.28 176.794 894.213 174.703 896.08C172.612 897.947 171.25 900.691 170.615 904.312V904.144L167.647 921H163.727L169.103 890.424H173.023L172.071 895.688C173.378 893.821 175.039 892.384 177.055 891.376C179.071 890.368 181.255 889.864 183.607 889.864ZM200.06 905.656C200.62 902.52 201.74 899.776 203.42 897.424C205.1 895.035 207.154 893.205 209.58 891.936C212.044 890.629 214.676 889.976 217.476 889.976C220.388 889.976 222.778 890.648 224.644 891.992C226.511 893.336 227.724 895.053 228.284 897.144L229.46 890.424H233.38L228.004 921H224.084L225.26 914.224C223.991 916.315 222.162 918.051 219.772 919.432C217.42 920.776 214.788 921.448 211.876 921.448C209.45 921.448 207.322 920.944 205.492 919.936C203.663 918.928 202.244 917.509 201.236 915.68C200.228 913.813 199.724 911.629 199.724 909.128C199.724 908.045 199.836 906.888 200.06 905.656ZM226.772 905.712C226.959 904.667 227.052 903.733 227.052 902.912C227.052 900 226.175 897.685 224.42 895.968C222.666 894.251 220.388 893.392 217.588 893.392C215.423 893.392 213.388 893.877 211.484 894.848C209.618 895.819 208.031 897.237 206.724 899.104C205.418 900.933 204.54 903.117 204.092 905.656C203.906 906.776 203.812 907.728 203.812 908.512C203.812 911.461 204.671 913.795 206.388 915.512C208.143 917.192 210.42 918.032 213.22 918.032C215.311 918.032 217.308 917.528 219.212 916.52C221.154 915.512 222.778 914.075 224.084 912.208C225.428 910.341 226.324 908.176 226.772 905.712ZM255.265 889.976C258.14 889.976 260.511 890.648 262.377 891.992C264.281 893.336 265.513 895.035 266.073 897.088L267.249 890.424H271.169L265.681 921.784C265.196 924.584 264.151 927.067 262.545 929.232C260.977 931.397 258.999 933.059 256.609 934.216C254.22 935.411 251.644 936.008 248.881 936.008C244.961 936.008 241.863 935.075 239.585 933.208C237.345 931.341 236.188 928.803 236.113 925.592H239.977C240.276 927.72 241.247 929.419 242.889 930.688C244.532 931.957 246.735 932.592 249.497 932.592C252.521 932.592 255.172 931.621 257.449 929.68C259.727 927.776 261.164 925.144 261.761 921.784L263.049 914.224C261.78 916.315 259.951 918.051 257.561 919.432C255.209 920.776 252.596 921.448 249.721 921.448C246.025 921.448 243.057 920.347 240.817 918.144C238.615 915.904 237.513 912.899 237.513 909.128C237.513 908.045 237.625 906.888 237.849 905.656C238.409 902.52 239.529 899.776 241.209 897.424C242.889 895.035 244.943 893.205 247.369 891.936C249.833 890.629 252.465 889.976 255.265 889.976ZM264.561 905.712C264.748 904.667 264.841 903.733 264.841 902.912C264.841 900 263.964 897.685 262.209 895.968C260.455 894.251 258.177 893.392 255.377 893.392C253.212 893.392 251.177 893.877 249.273 894.848C247.407 895.819 245.82 897.237 244.513 899.104C243.207 900.933 242.329 903.117 241.881 905.656C241.695 906.776 241.601 907.728 241.601 908.512C241.601 911.461 242.46 913.795 244.177 915.512C245.932 917.192 248.209 918.032 251.009 918.032C253.1 918.032 255.097 917.528 257.001 916.52C258.943 915.512 260.567 914.075 261.873 912.208C263.217 910.341 264.113 908.176 264.561 905.712ZM293.447 889.976C296.023 889.976 298.225 890.48 300.055 891.488C301.884 892.459 303.265 893.803 304.199 895.52C305.169 897.237 305.655 899.197 305.655 901.4C305.655 902.408 305.58 903.304 305.431 904.088C305.207 905.208 304.983 906.216 304.759 907.112H279.391C279.279 907.821 279.223 908.493 279.223 909.128C279.223 912.003 280.081 914.224 281.799 915.792C283.553 917.36 285.775 918.144 288.463 918.144C291.039 918.144 293.297 917.528 295.239 916.296C297.18 915.064 298.599 913.403 299.495 911.312H303.695C302.425 914.299 300.391 916.744 297.591 918.648C294.828 920.515 291.599 921.448 287.903 921.448C284.095 921.448 281.033 920.365 278.719 918.2C276.441 915.997 275.303 913.011 275.303 909.24C275.303 908.12 275.415 906.944 275.639 905.712C276.199 902.539 277.319 899.757 278.999 897.368C280.716 894.979 282.825 893.149 285.327 891.88C287.828 890.611 290.535 889.976 293.447 889.976ZM301.399 904.2C301.585 903.155 301.679 902.277 301.679 901.568C301.679 898.917 300.839 896.883 299.159 895.464C297.479 894.045 295.332 893.336 292.719 893.336C290.815 893.336 288.985 893.747 287.231 894.568C285.476 895.389 283.945 896.621 282.639 898.264C281.332 899.907 280.436 901.885 279.951 904.2H301.399ZM351.522 889.864C354.584 889.864 357.029 890.704 358.858 892.384C360.725 894.064 361.658 896.528 361.658 899.776C361.658 900.784 361.546 901.885 361.322 903.08L358.13 921H354.266L357.402 903.528C357.589 902.408 357.682 901.475 357.682 900.728C357.682 898.301 357.029 896.453 355.722 895.184C354.416 893.915 352.568 893.28 350.178 893.28C347.528 893.28 345.194 894.12 343.178 895.8C341.2 897.48 339.818 899.907 339.034 903.08L335.786 921H331.922L335.058 903.528C335.245 902.408 335.338 901.475 335.338 900.728C335.338 898.301 334.685 896.453 333.378 895.184C332.072 893.915 330.242 893.28 327.89 893.28C325.053 893.28 322.608 894.213 320.554 896.08C318.501 897.909 317.138 900.56 316.466 904.032L313.498 921H309.578L314.954 890.424H318.874L317.922 895.744C319.192 893.84 320.816 892.384 322.794 891.376C324.81 890.368 326.938 889.864 329.178 889.864C331.829 889.864 334.032 890.499 335.786 891.768C337.541 893.037 338.642 894.904 339.09 897.368C340.322 894.941 342.058 893.093 344.298 891.824C346.538 890.517 348.946 889.864 351.522 889.864ZM385.54 889.976C388.116 889.976 390.319 890.48 392.148 891.488C393.978 892.459 395.359 893.803 396.292 895.52C397.263 897.237 397.748 899.197 397.748 901.4C397.748 902.408 397.674 903.304 397.524 904.088C397.3 905.208 397.076 906.216 396.852 907.112H371.484C371.372 907.821 371.316 908.493 371.316 909.128C371.316 912.003 372.175 914.224 373.892 915.792C375.647 917.36 377.868 918.144 380.556 918.144C383.132 918.144 385.391 917.528 387.332 916.296C389.274 915.064 390.692 913.403 391.588 911.312H395.788C394.519 914.299 392.484 916.744 389.684 918.648C386.922 920.515 383.692 921.448 379.996 921.448C376.188 921.448 373.127 920.365 370.812 918.2C368.535 915.997 367.396 913.011 367.396 909.24C367.396 908.12 367.508 906.944 367.732 905.712C368.292 902.539 369.412 899.757 371.092 897.368C372.81 894.979 374.919 893.149 377.42 891.88C379.922 890.611 382.628 889.976 385.54 889.976ZM393.492 904.2C393.679 903.155 393.772 902.277 393.772 901.568C393.772 898.917 392.932 896.883 391.252 895.464C389.572 894.045 387.426 893.336 384.812 893.336C382.908 893.336 381.079 893.747 379.324 894.568C377.57 895.389 376.039 896.621 374.732 898.264C373.426 899.907 372.53 901.885 372.044 904.2H393.492ZM421.552 889.864C424.688 889.864 427.19 890.723 429.056 892.44C430.96 894.12 431.912 896.584 431.912 899.832C431.912 901.027 431.819 902.109 431.632 903.08L428.44 921H424.576L427.656 903.528C427.806 902.669 427.88 901.755 427.88 900.784C427.88 898.32 427.208 896.453 425.864 895.184C424.52 893.915 422.635 893.28 420.208 893.28C417.259 893.28 414.739 894.213 412.648 896.08C410.558 897.947 409.195 900.691 408.56 904.312V904.144L405.592 921H401.672L407.048 890.424H410.968L410.016 895.688C411.323 893.821 412.984 892.384 415 891.376C417.016 890.368 419.2 889.864 421.552 889.864ZM443.606 912.712C443.494 913.384 443.438 913.963 443.438 914.448C443.438 915.643 443.755 916.483 444.39 916.968C445.062 917.416 446.144 917.64 447.638 917.64H451.222L450.606 921H446.406C444.091 921 442.355 920.552 441.198 919.656C440.04 918.76 439.462 917.285 439.462 915.232C439.462 914.411 439.536 913.571 439.686 912.712L443.046 893.728H438.79L439.406 890.424H443.662L445.006 882.752H448.926L447.582 890.424H456.038L455.422 893.728H446.966L443.606 912.712ZM78.872 988.448C75.7733 988.448 73.2533 987.739 71.312 986.32C69.3707 984.864 68.4 982.885 68.4 980.384C68.4 979.936 68.4187 979.6 68.456 979.376H72.264C72.1147 981.168 72.6373 982.605 73.832 983.688C75.0267 984.771 76.7813 985.312 79.096 985.312C81.448 985.312 83.3333 984.827 84.752 983.856C86.1707 982.848 86.88 981.523 86.88 979.88C86.88 978.909 86.5813 978.088 85.984 977.416C85.3867 976.744 84.64 976.203 83.744 975.792C82.8853 975.344 81.672 974.84 80.104 974.28C78.1627 973.571 76.5947 972.917 75.4 972.32C74.2427 971.685 73.2347 970.827 72.376 969.744C71.5547 968.624 71.144 967.224 71.144 965.544C71.144 963.864 71.6293 962.371 72.6 961.064C73.5707 959.757 74.896 958.749 76.576 958.04C78.2933 957.331 80.2347 956.976 82.4 956.976C85.424 956.976 87.888 957.723 89.792 959.216C91.7333 960.709 92.704 962.688 92.704 965.152C92.704 965.675 92.6853 966.067 92.648 966.328H88.952C88.9893 966.179 89.008 965.936 89.008 965.6C89.008 963.957 88.3547 962.632 87.048 961.624C85.7787 960.616 84.136 960.112 82.12 960.112C80.104 960.112 78.424 960.597 77.08 961.568C75.7733 962.501 75.12 963.771 75.12 965.376C75.12 966.459 75.4373 967.373 76.072 968.12C76.7067 968.829 77.4907 969.408 78.424 969.856C79.3573 970.304 80.608 970.827 82.176 971.424C84.0427 972.133 85.536 972.787 86.656 973.384C87.8133 973.981 88.784 974.803 89.568 975.848C90.352 976.893 90.744 978.2 90.744 979.768C90.744 982.419 89.6427 984.528 87.44 986.096C85.2373 987.664 82.3813 988.448 78.872 988.448ZM103.331 957.424L109.099 983.352L123.715 957.424H127.803L101.763 1002.39H97.6189L106.131 987.776L98.9629 957.424H103.331ZM137.935 988.448C134.836 988.448 132.316 987.739 130.375 986.32C128.433 984.864 127.463 982.885 127.463 980.384C127.463 979.936 127.481 979.6 127.519 979.376H131.327C131.177 981.168 131.7 982.605 132.895 983.688C134.089 984.771 135.844 985.312 138.159 985.312C140.511 985.312 142.396 984.827 143.815 983.856C145.233 982.848 145.943 981.523 145.943 979.88C145.943 978.909 145.644 978.088 145.047 977.416C144.449 976.744 143.703 976.203 142.807 975.792C141.948 975.344 140.735 974.84 139.167 974.28C137.225 973.571 135.657 972.917 134.463 972.32C133.305 971.685 132.297 970.827 131.439 969.744C130.617 968.624 130.207 967.224 130.207 965.544C130.207 963.864 130.692 962.371 131.663 961.064C132.633 959.757 133.959 958.749 135.639 958.04C137.356 957.331 139.297 956.976 141.463 956.976C144.487 956.976 146.951 957.723 148.855 959.216C150.796 960.709 151.767 962.688 151.767 965.152C151.767 965.675 151.748 966.067 151.711 966.328H148.015C148.052 966.179 148.071 965.936 148.071 965.6C148.071 963.957 147.417 962.632 146.111 961.624C144.841 960.616 143.199 960.112 141.183 960.112C139.167 960.112 137.487 960.597 136.143 961.568C134.836 962.501 134.183 963.771 134.183 965.376C134.183 966.459 134.5 967.373 135.135 968.12C135.769 968.829 136.553 969.408 137.487 969.856C138.42 970.304 139.671 970.827 141.239 971.424C143.105 972.133 144.599 972.787 145.719 973.384C146.876 973.981 147.847 974.803 148.631 975.848C149.415 976.893 149.807 978.2 149.807 979.768C149.807 982.419 148.705 984.528 146.503 986.096C144.3 987.664 141.444 988.448 137.935 988.448ZM162.785 979.712C162.673 980.384 162.617 980.963 162.617 981.448C162.617 982.643 162.935 983.483 163.569 983.968C164.241 984.416 165.324 984.64 166.817 984.64H170.401L169.785 988H165.585C163.271 988 161.535 987.552 160.377 986.656C159.22 985.76 158.641 984.285 158.641 982.232C158.641 981.411 158.716 980.571 158.865 979.712L162.225 960.728H157.969L158.585 957.424H162.841L164.185 949.752H168.105L166.761 957.424H175.217L174.601 960.728H166.145L162.785 979.712ZM194.954 956.976C197.53 956.976 199.733 957.48 201.562 958.488C203.392 959.459 204.773 960.803 205.706 962.52C206.677 964.237 207.162 966.197 207.162 968.4C207.162 969.408 207.088 970.304 206.938 971.088C206.714 972.208 206.49 973.216 206.266 974.112H180.898C180.786 974.821 180.73 975.493 180.73 976.128C180.73 979.003 181.589 981.224 183.306 982.792C185.061 984.36 187.282 985.144 189.97 985.144C192.546 985.144 194.805 984.528 196.746 983.296C198.688 982.064 200.106 980.403 201.002 978.312H205.202C203.933 981.299 201.898 983.744 199.098 985.648C196.336 987.515 193.106 988.448 189.41 988.448C185.602 988.448 182.541 987.365 180.226 985.2C177.949 982.997 176.81 980.011 176.81 976.24C176.81 975.12 176.922 973.944 177.146 972.712C177.706 969.539 178.826 966.757 180.506 964.368C182.224 961.979 184.333 960.149 186.834 958.88C189.336 957.611 192.042 956.976 194.954 956.976ZM202.906 971.2C203.093 970.155 203.186 969.277 203.186 968.568C203.186 965.917 202.346 963.883 200.666 962.464C198.986 961.045 196.84 960.336 194.226 960.336C192.322 960.336 190.493 960.747 188.738 961.568C186.984 962.389 185.453 963.621 184.146 965.264C182.84 966.907 181.944 968.885 181.458 971.2H202.906ZM253.03 956.864C256.092 956.864 258.537 957.704 260.366 959.384C262.233 961.064 263.166 963.528 263.166 966.776C263.166 967.784 263.054 968.885 262.83 970.08L259.638 988H255.774L258.91 970.528C259.097 969.408 259.19 968.475 259.19 967.728C259.19 965.301 258.537 963.453 257.23 962.184C255.924 960.915 254.076 960.28 251.686 960.28C249.036 960.28 246.702 961.12 244.686 962.8C242.708 964.48 241.326 966.907 240.542 970.08L237.294 988H233.43L236.566 970.528C236.753 969.408 236.846 968.475 236.846 967.728C236.846 965.301 236.193 963.453 234.886 962.184C233.58 960.915 231.75 960.28 229.398 960.28C226.561 960.28 224.116 961.213 222.062 963.08C220.009 964.909 218.646 967.56 217.974 971.032L215.006 988H211.086L216.462 957.424H220.382L219.43 962.744C220.7 960.84 222.324 959.384 224.302 958.376C226.318 957.368 228.446 956.864 230.686 956.864C233.337 956.864 235.54 957.499 237.294 958.768C239.049 960.037 240.15 961.904 240.598 964.368C241.83 961.941 243.566 960.093 245.806 958.824C248.046 957.517 250.454 956.864 253.03 956.864ZM280.496 948.856L274.952 977.64H271.648L276.296 948.856H280.496ZM271.592 988.28C270.883 988.28 270.304 988.056 269.856 987.608C269.408 987.16 269.184 986.581 269.184 985.872C269.184 984.976 269.52 984.192 270.192 983.52C270.901 982.848 271.704 982.512 272.6 982.512C273.309 982.512 273.888 982.736 274.336 983.184C274.784 983.595 275.008 984.155 275.008 984.864C275.008 985.76 274.653 986.563 273.944 987.272C273.272 987.944 272.488 988.28 271.592 988.28Z" fill="#253C4F"/>
<circle cx="850.5" cy="1053.5" r="189.5" fill="#AC1754"/>
<path d="M425.322 350.155C420.141 350.155 415.914 354.772 415.914 360.46C415.914 366.133 420.127 370.765 425.322 370.765C430.502 370.765 434.729 366.148 434.729 360.46C434.729 354.787 430.502 350.155 425.322 350.155Z" fill="#253C4F"/>
<path d="M425.32 376.746C416.981 376.746 410.185 369.446 410.185 360.46C410.185 351.474 416.981 344.174 425.32 344.174C433.661 344.174 440.456 351.474 440.456 360.46C440.456 369.446 433.661 376.746 425.32 376.746ZM459.902 358.877C450.945 343.866 438.87 335.598 425.938 335.598C413.007 335.598 400.932 343.866 391.974 358.877C391.399 359.844 391.399 361.076 391.974 362.043C400.932 377.054 413.007 385.321 425.938 385.321C438.87 385.321 450.931 377.054 459.902 362.043C460.478 361.076 460.478 359.844 459.902 358.877Z" fill="#AC1754"/>
<path d="M313.431 394.59L292.311 326.241H299.112L318.89 390.586H315.489L335.893 326.241H341.978L362.114 390.586H358.892L378.849 326.241H385.203L364.083 394.59H357.102L337.862 333.564H339.652L320.321 394.59H313.431ZM468.921 394.59V326.241H492.368C497.678 326.241 502.242 327.185 506.06 329.073C509.879 330.895 512.802 333.564 514.831 337.079C516.919 340.529 517.963 344.728 517.963 349.675C517.963 354.492 516.919 358.658 514.831 362.173C512.802 365.623 509.879 368.292 506.06 370.179C502.242 372.002 497.678 372.913 492.368 372.913H472.59L475.544 369.594V394.59H468.921ZM511.698 394.59L495.59 369.789H502.749L518.947 394.59H511.698ZM475.544 370.179L472.59 366.762H492.189C498.454 366.762 503.197 365.265 506.418 362.271C509.7 359.276 511.339 355.078 511.339 349.675C511.339 344.207 509.7 339.976 506.418 336.982C503.197 333.987 498.454 332.49 492.189 332.49H472.59L475.544 329.073V370.179ZM539.32 377.6L539.052 368.813L576.996 326.241H584.603L556.95 357.877L553.192 362.271L539.32 377.6ZM533.593 394.59V326.241H540.215V394.59H533.593ZM578.607 394.59L551.581 360.611L556.055 355.338L586.483 394.59H578.607ZM610.55 394.883C607.627 394.883 604.733 394.46 601.87 393.613C599.065 392.767 596.56 391.628 594.352 390.196C592.145 388.764 590.474 387.136 589.341 385.314L590.773 384.045C591.906 385.737 593.517 387.267 595.605 388.634C597.693 390.001 600.05 391.075 602.675 391.856C605.3 392.637 607.955 393.027 610.639 393.027C614.876 393.027 618.634 392.377 621.916 391.075C625.197 389.708 627.762 387.722 629.612 385.119C631.461 382.515 632.386 379.358 632.386 375.647C632.386 372.979 631.76 370.83 630.507 369.203C629.314 367.511 627.703 366.144 625.674 365.102C623.705 364.061 621.528 363.182 619.141 362.466C616.755 361.75 614.368 361.001 611.982 360.22C609.596 359.374 607.388 358.397 605.36 357.291C603.391 356.119 601.78 354.589 600.527 352.702C599.334 350.814 598.737 348.406 598.737 345.476C598.737 341.245 599.752 337.698 601.78 334.833C603.809 331.904 606.553 329.691 610.012 328.194C613.474 326.697 617.381 325.948 621.737 325.948C625.137 325.948 628.449 326.469 631.67 327.51C634.892 328.552 637.607 330.049 639.814 332.002L638.651 333.662C636.443 331.774 633.878 330.342 630.954 329.366C628.091 328.324 625.018 327.803 621.737 327.803C617.62 327.803 613.951 328.487 610.729 329.854C607.507 331.221 604.972 333.206 603.122 335.81C601.333 338.414 600.438 341.571 600.438 345.281C600.438 347.95 601.034 350.131 602.227 351.823C603.48 353.515 605.091 354.915 607.06 356.022C609.089 357.063 611.296 357.974 613.682 358.755C616.129 359.472 618.545 360.22 620.931 361.001C623.318 361.782 625.495 362.759 627.464 363.93C629.493 365.102 631.103 366.599 632.297 368.422C633.55 370.245 634.176 372.621 634.176 375.55C634.176 379.846 633.102 383.426 630.954 386.29C628.866 389.154 626.032 391.302 622.453 392.735C618.933 394.167 614.965 394.883 610.55 394.883ZM655.885 358.951H690.876L690.518 360.806H655.527L655.885 358.951ZM650.158 392.735H690.071L689.713 394.59H648.01L660.539 326.241H700.899L700.541 328.096H661.971L650.158 392.735ZM707.788 394.59L720.316 326.241H721.838L756.381 392.442L755.666 392.149L767.747 326.241H769.537L757.008 394.59H755.487L720.943 328.389L721.659 328.682L709.577 394.59H707.788ZM797.136 394.883C794.213 394.883 791.32 394.46 788.456 393.613C785.652 392.767 783.146 391.628 780.939 390.196C778.731 388.764 777.061 387.136 775.927 385.314L777.359 384.045C778.492 385.737 780.103 387.267 782.191 388.634C784.28 390.001 786.636 391.075 789.261 391.856C791.886 392.637 794.541 393.027 797.226 393.027C801.462 393.027 805.221 392.377 808.502 391.075C811.783 389.708 814.349 387.722 816.198 385.119C818.048 382.515 818.972 379.358 818.972 375.647C818.972 372.979 818.346 370.83 817.093 369.203C815.9 367.511 814.289 366.144 812.261 365.102C810.292 364.061 808.114 363.182 805.728 362.466C803.341 361.75 800.955 361.001 798.568 360.22C796.182 359.374 793.974 358.397 791.946 357.291C789.977 356.119 788.366 354.589 787.113 352.702C785.92 350.814 785.324 348.406 785.324 345.476C785.324 341.245 786.338 337.698 788.366 334.833C790.395 331.904 793.139 329.691 796.6 328.194C800.06 326.697 803.968 325.948 808.323 325.948C811.724 325.948 815.035 326.469 818.257 327.51C821.478 328.552 824.193 330.049 826.4 332.002L825.237 333.662C823.029 331.774 820.464 330.342 817.541 329.366C814.677 328.324 811.604 327.803 808.323 327.803C804.206 327.803 800.537 328.487 797.315 329.854C794.094 331.221 791.558 333.206 789.709 335.81C787.919 338.414 787.024 341.571 787.024 345.281C787.024 347.95 787.621 350.131 788.814 351.823C790.067 353.515 791.678 354.915 793.646 356.022C795.675 357.063 797.882 357.974 800.269 358.755C802.715 359.472 805.131 360.22 807.518 361.001C809.904 361.782 812.082 362.759 814.05 363.93C816.079 365.102 817.69 366.599 818.883 368.422C820.136 370.245 820.762 372.621 820.762 375.55C820.762 379.846 819.688 383.426 817.541 386.29C815.452 389.154 812.619 391.302 809.039 392.735C805.519 394.167 801.551 394.883 797.136 394.883ZM842.471 358.951H877.463L877.105 360.806H842.114L842.471 358.951ZM836.744 392.735H876.657L876.299 394.59H834.596L847.125 326.241H887.486L887.128 328.096H848.557L836.744 392.735Z" fill="#253C4F"/>
<ellipse cx="29.5" cy="471.5" rx="141.5" ry="134.5" fill="#253C4F"/>
</svg>
